<svg width="40" height="41" viewBox="0 0 40 41" fill="none" xmlns="http://www.w3.org/2000/svg">
<rect y="1" width="40" height="40" rx="20" fill="white"/>
<path fill-rule="evenodd" clip-rule="evenodd" d="M12 16C12 18.7614 14.2386 21 17 21C19.7601 20.9967 21.9967 18.7601 22 16C22 13.2386 19.7614 11 17 11C14.2386 11 12 13.2386 12 16ZM25 31C24.4477 31 24 30.5523 24 30V28C24 26.3431 22.6569 25 21 25H13C11.3431 25 10 26.3431 10 28V30C10 30.5523 9.55228 31 9 31C8.44772 31 8 30.5523 8 30V28C8.00331 25.2399 10.2399 23.0033 13 23H21C23.7601 23.0033 25.9967 25.2399 26 28V30C26 30.5523 25.5523 31 25 31ZM31 31C30.4477 31 30 30.5523 30 30V28C29.9978 26.6338 29.0728 25.4416 27.75 25.1C27.2151 24.9619 26.8934 24.4164 27.0315 23.8815C27.1696 23.3466 27.7151 23.0249 28.25 23.163C30.4561 23.7326 31.9981 25.7216 32 28V30C32 30.2652 31.8946 30.5196 31.7071 30.7071C31.5196 30.8946 31.2652 31 31 31ZM17 13C15.3431 13 14 14.3431 14 16C14 17.6569 15.3431 19 17 19C18.6569 19 20 17.6569 20 16C20 14.3431 18.6569 13 17 13ZM23.0069 20.005C23.0699 20.5053 23.4957 20.8805 24 20.88C24.085 20.8806 24.1697 20.8702 24.252 20.849C26.4649 20.2829 28.0128 18.2891 28.0128 16.005C28.0128 13.7209 26.4649 11.7271 24.252 11.161C23.7168 11.0229 23.1711 11.3448 23.033 11.88C22.8949 12.4152 23.2168 12.9609 23.752 13.099C25.079 13.4392 26.0069 14.6351 26.0069 16.005C26.0069 17.3749 25.079 18.5708 23.752 18.911C23.2633 19.0356 22.9439 19.5046 23.0069 20.005Z" fill="#333333"/>
<mask id="mask0_226_17379" style="mask-type:luminance" maskUnits="userSpaceOnUse" x="8" y="11" width="24" height="20">
<path fill-rule="evenodd" clip-rule="evenodd" d="M31 31C30.4477 31 30 30.5523 30 30V28C29.9978 26.6338 29.0728 25.4416 27.75 25.1C27.2151 24.9619 26.8934 24.4164 27.0315 23.8815C27.1696 23.3466 27.7151 23.0249 28.25 23.163C30.4561 23.7326 31.9981 25.7216 32 28V30C32 30.2652 31.8946 30.5196 31.7071 30.7071C31.5196 30.8946 31.2652 31 31 31ZM25 31C24.4477 31 24 30.5523 24 30V28C24 26.3431 22.6569 25 21 25H13C11.3431 25 10 26.3431 10 28V30C10 30.5523 9.55228 31 9 31C8.44772 31 8 30.5523 8 30V28C8.00331 25.2399 10.2399 23.0033 13 23H21C23.7601 23.0033 25.9967 25.2399 26 28V30C26 30.5523 25.5523 31 25 31ZM17 21C14.2386 21 12 18.7614 12 16C12 13.2386 14.2386 11 17 11C19.7614 11 22 13.2386 22 16C21.9967 18.7601 19.7601 20.9967 17 21ZM17 13C15.3431 13 14 14.3431 14 16C14 17.6569 15.3431 19 17 19C18.6569 19 20 17.6569 20 16C20 14.3431 18.6569 13 17 13ZM24 20.88C23.4957 20.8805 23.0699 20.5053 23.0069 20.005C22.9439 19.5046 23.2633 19.0356 23.752 18.911C25.079 18.5708 26.0069 17.3749 26.0069 16.005C26.0069 14.6351 25.079 13.4392 23.752 13.099C23.2168 12.9609 22.8949 12.4152 23.033 11.88C23.1711 11.3448 23.7168 11.0229 24.252 11.161C26.4649 11.7271 28.0128 13.7209 28.0128 16.005C28.0128 18.2891 26.4649 20.2829 24.252 20.849C24.1697 20.8702 24.085 20.8806 24 20.88Z" fill="white"/>
</mask>
<g mask="url(#mask0_226_17379)">
<rect x="8" y="9" width="24" height="24" fill="#333333"/>
</g>
<circle cx="33.5" cy="7.5" r="6.5" fill="#4598D1"/>
<path d="M36.7539 6.93457V8.31201H30.4189V6.93457H36.7539ZM34.3291 4.34473V11.0732H32.8501V4.34473H34.3291Z" fill="white"/>
</svg>
