<svg width="24" height="24" viewBox="0 0 24 24" fill="none" xmlns="http://www.w3.org/2000/svg">
<path d="M2.5 11.5H21.5C21.7652 11.5 22.0196 11.6054 22.2071 11.7929C22.3946 11.9804 22.5 12.2348 22.5 12.5V16.5H1.5V12.5C1.5 12.2348 1.60536 11.9804 1.79289 11.7929C1.98043 11.6054 2.23478 11.5 2.5 11.5Z" stroke="#F2BD85" stroke-linecap="round" stroke-linejoin="round"/>
<path d="M23.5 16.5V18C23.5 18.2652 23.3946 18.5196 23.2071 18.7071C23.0196 18.8946 22.7652 19 22.5 19H1.5C1.23478 19 0.98043 18.8946 0.792893 18.7071C0.605357 18.5196 0.5 18.2652 0.5 18V16.5H23.5Z" stroke="#F2BD85" stroke-linecap="round" stroke-linejoin="round"/>
<path d="M1.5 19V21" stroke="#F2BD85" stroke-linecap="round" stroke-linejoin="round"/>
<path d="M22.5 19V21" stroke="#F2BD85" stroke-linecap="round" stroke-linejoin="round"/>
<path d="M2.5 11.5V6.5C2.5 5.96957 2.71071 5.46086 3.08579 5.08579C3.46086 4.71071 3.96957 4.5 4.5 4.5H19.5C20.0304 4.5 20.5391 4.71071 20.9142 5.08579C21.2893 5.46086 21.5 5.96957 21.5 6.5V11.5" stroke="#F2BD85" stroke-linecap="round" stroke-linejoin="round"/>
<path d="M12 10.5C12 10.7652 11.8946 11.0196 11.7071 11.2071C11.5196 11.3946 11.2652 11.5 11 11.5H5.5C5.23478 11.5 4.98043 11.3946 4.79289 11.2071C4.60536 11.0196 4.5 10.7652 4.5 10.5V9.67C4.5 8.3 7.47 8 8.25 8C8.71 8 12 8.31 12 9.67V10.5Z" stroke="#F2BD85" stroke-linecap="round" stroke-linejoin="round"/>
<path d="M19.5 10.5C19.5 10.7652 19.3946 11.0196 19.2071 11.2071C19.0196 11.3946 18.7652 11.5 18.5 11.5H13C12.7348 11.5 12.4804 11.3946 12.2929 11.2071C12.1054 11.0196 12 10.7652 12 10.5V9.67C12 8.3 15 8 15.75 8C16.21 8 19.5 8.31 19.5 9.67V10.5Z" stroke="#F2BD85" stroke-linecap="round" stroke-linejoin="round"/>
<path d="M2.5 6.5V3" stroke="#F2BD85" stroke-linecap="round" stroke-linejoin="round"/>
<path d="M21.5 6.5V3" stroke="#F2BD85" stroke-linecap="round" stroke-linejoin="round"/>
</svg>
