<svg width="32" height="32" viewBox="0 0 32 32" fill="none" xmlns="http://www.w3.org/2000/svg">
<path d="M17.3333 4C9.96925 4 3.99992 9.372 3.99992 16C4.00897 18.5095 4.86444 20.9424 6.42792 22.9053L1.33325 28H17.3333C24.6973 28 30.6666 22.628 30.6666 16C30.6666 9.372 24.6973 4 17.3333 4Z" stroke="white" stroke-width="2" stroke-linejoin="round"/>
<path d="M17.3333 16V22.6667" stroke="white" stroke-width="2" stroke-linejoin="round"/>
<path d="M17.3333 13.3333C18.4378 13.3333 19.3333 12.4378 19.3333 11.3333C19.3333 10.2287 18.4378 9.33325 17.3333 9.33325C16.2287 9.33325 15.3333 10.2287 15.3333 11.3333C15.3333 12.4378 16.2287 13.3333 17.3333 13.3333Z" fill="white"/>
</svg>
