<svg width="40" height="40" viewBox="0 0 40 40" fill="none" xmlns="http://www.w3.org/2000/svg">
<rect opacity="0.1" width="40" height="40" rx="20" fill="#4598D1"/>
<path fill-rule="evenodd" clip-rule="evenodd" d="M16.784 28.3331H16.793L23.227 28.3251C24.3799 28.4246 25.5184 28.0129 26.341 27.199C27.1636 26.385 27.5873 25.251 27.5 24.0971L27.491 17.0671C27.5263 16.002 27.1516 14.964 26.444 14.1671C25.7102 13.4207 24.7207 12.9801 23.675 12.9341V12.3091C23.6842 12.0767 23.5656 11.858 23.3658 11.7391C23.1659 11.6202 22.9171 11.6202 22.7173 11.7391C22.5175 11.858 22.3988 12.0767 22.408 12.3091V12.8921L17.521 12.8991V12.3161C17.5216 12.0591 17.3682 11.8268 17.1316 11.7264C16.8951 11.626 16.6214 11.6771 16.437 11.8561C16.317 11.9796 16.2515 12.1459 16.255 12.3181V12.9421C15.2143 13.0019 14.2351 13.4543 13.515 14.2081C12.8213 15.0186 12.4589 16.061 12.5 17.1271L12.509 24.0671C12.4605 25.2191 12.8783 26.342 13.668 27.1821C14.5102 27.9683 15.633 28.3831 16.784 28.3331ZM22.695 24.2031C22.686 23.8217 22.9867 23.5045 23.368 23.4931H23.376C23.7564 23.4877 24.0696 23.7908 24.0766 24.1712C24.0837 24.5515 23.782 24.866 23.4017 24.8748C23.0214 24.8836 22.7055 24.5833 22.695 24.2031ZM16.596 23.4931C16.2157 23.5129 15.9187 23.8293 15.923 24.2101C15.9337 24.5778 16.2322 24.8719 16.6 24.8771H16.631C17.0079 24.8577 17.2981 24.5371 17.28 24.1601C17.274 23.7885 16.9696 23.4913 16.598 23.4941L16.596 23.4931ZM19.312 24.2101C19.3083 23.8291 19.6055 23.5129 19.986 23.4931L19.989 23.4941C20.3596 23.4918 20.6634 23.7875 20.671 24.1581C20.6891 24.5356 20.3985 24.8567 20.021 24.8761H19.99C19.6219 24.8719 19.3227 24.578 19.312 24.2101ZM16.593 20.4951C16.2122 20.5139 15.9147 20.8309 15.92 21.2121C15.9307 21.58 16.2299 21.8739 16.598 21.8781H16.629C16.8093 21.8706 16.9791 21.791 17.1 21.6571C17.2244 21.5212 17.2889 21.341 17.279 21.1571C17.2719 20.7862 16.968 20.4898 16.597 20.4921L16.593 20.4951ZM19.31 21.1821C19.3057 20.8013 19.6027 20.4849 19.983 20.4651L19.985 20.4671C20.3564 20.4643 20.6609 20.7608 20.668 21.1321C20.6845 21.5085 20.3952 21.8281 20.019 21.8491H19.989C19.6204 21.8449 19.3207 21.5506 19.31 21.1821ZM23.373 20.4651C22.994 20.4733 22.6929 20.7861 22.699 21.1651V21.1751C22.7061 21.5472 23.0119 21.844 23.384 21.8401H23.4C23.77 21.8209 24.0581 21.5119 24.0514 21.1415C24.0446 20.7711 23.7454 20.4728 23.375 20.4671L23.373 20.4651ZM14.3569 15.1103C14.8329 14.5538 15.5248 14.2282 16.257 14.2161V14.8561C16.2551 15.0257 16.3201 15.1892 16.438 15.3111C16.621 15.493 16.8957 15.5465 17.1336 15.4466C17.3716 15.3467 17.5257 15.1131 17.524 14.8551V14.1811L22.411 14.1741V14.8491C22.4091 15.0187 22.4741 15.1822 22.592 15.3041C22.7747 15.487 23.0499 15.5412 23.2883 15.4411C23.5266 15.341 23.6807 15.1066 23.678 14.8481V14.2071C24.4103 14.2102 25.1066 14.5251 25.5926 15.0729C26.0786 15.6207 26.3082 16.3496 26.224 17.0771V17.3671L13.768 17.3851V17.1261C13.6665 16.4008 13.8809 15.6669 14.3569 15.1103Z" fill="#4598D1"/>
</svg>
