<svg width="32" height="32" viewBox="0 0 32 32" fill="none" xmlns="http://www.w3.org/2000/svg">
<g clip-path="url(#clip0_168_18337)">
<path d="M29.3333 0H2.66667C1.95942 0 1.28115 0.280952 0.781049 0.781049C0.280952 1.28115 0 1.95942 0 2.66667L0 18.6667C0 19.3739 0.280952 20.0522 0.781049 20.5523C1.28115 21.0524 1.95942 21.3333 2.66667 21.3333H7.33333C7.68696 21.3333 8.02609 21.1929 8.27614 20.9428C8.52619 20.6928 8.66667 20.3536 8.66667 20C8.66667 19.6464 8.52619 19.3072 8.27614 19.0572C8.02609 18.8071 7.68696 18.6667 7.33333 18.6667H3.33333C3.15652 18.6667 2.98695 18.5964 2.86193 18.4714C2.7369 18.3464 2.66667 18.1768 2.66667 18V3.33333C2.66667 3.15652 2.7369 2.98695 2.86193 2.86193C2.98695 2.7369 3.15652 2.66667 3.33333 2.66667H28.6667C28.8435 2.66667 29.013 2.7369 29.1381 2.86193C29.2631 2.98695 29.3333 3.15652 29.3333 3.33333V18C29.3333 18.1768 29.2631 18.3464 29.1381 18.4714C29.013 18.5964 28.8435 18.6667 28.6667 18.6667H24.6667C24.313 18.6667 23.9739 18.8071 23.7239 19.0572C23.4738 19.3072 23.3333 19.6464 23.3333 20C23.3333 20.3536 23.4738 20.6928 23.7239 20.9428C23.9739 21.1929 24.313 21.3333 24.6667 21.3333H29.3333C30.0406 21.3333 30.7189 21.0524 31.219 20.5523C31.719 20.0522 32 19.3739 32 18.6667V2.66667C32 1.95942 31.719 1.28115 31.219 0.781049C30.7189 0.280952 30.0406 0 29.3333 0Z" fill="white"/>
<path d="M16.0001 15.9999C18.3933 15.9999 20.3334 14.0598 20.3334 11.6666C20.3334 9.27335 18.3933 7.33325 16.0001 7.33325C13.6068 7.33325 11.6667 9.27335 11.6667 11.6666C11.6667 14.0598 13.6068 15.9999 16.0001 15.9999Z" fill="white"/>
<path d="M21.0266 20.3867C21.086 20.3026 21.1264 20.2065 21.1448 20.1052C21.1632 20.0039 21.1593 19.8997 21.1332 19.8001C20.8023 18.6975 20.1235 17.7316 19.1983 17.0467C18.2731 16.3618 17.1511 15.9946 15.9999 16.0001C14.8516 16.0012 13.7344 16.373 12.8143 17.06C11.8943 17.7471 11.2205 18.7127 10.8932 19.8134C10.8597 19.9122 10.8518 20.0179 10.8705 20.1206C10.8892 20.2232 10.9337 20.3194 10.9999 20.4001C11.0605 20.4845 11.1407 20.5528 11.2336 20.5993C11.3265 20.6458 11.4294 20.6689 11.5332 20.6667H20.4932C20.5975 20.6632 20.6996 20.6362 20.7919 20.5877C20.8843 20.5392 20.9645 20.4705 21.0266 20.3867Z" fill="white"/>
<path d="M24.0001 22.6667H8.00008C7.64646 22.6667 7.30732 22.8072 7.05727 23.0573C6.80722 23.3073 6.66675 23.6465 6.66675 24.0001C6.66675 24.3537 6.80722 24.6928 7.05727 24.9429C7.30732 25.1929 7.64646 25.3334 8.00008 25.3334H8.90675L10.0267 30.9201C10.0863 31.2282 10.2527 31.5055 10.4966 31.7031C10.7405 31.9006 11.0463 32.0058 11.3601 32.0001H20.6934C21.0053 32.0064 21.3096 31.9031 21.5532 31.7082C21.7968 31.5133 21.9644 31.2391 22.0267 30.9334L23.1467 25.3334H24.0001C24.3537 25.3334 24.6928 25.1929 24.9429 24.9429C25.1929 24.6928 25.3334 24.3537 25.3334 24.0001C25.3334 23.6465 25.1929 23.3073 24.9429 23.0573C24.6928 22.8072 24.3537 22.6667 24.0001 22.6667ZM14.3334 27.6667C14.3334 27.3371 14.4312 27.0149 14.6143 26.7408C14.7974 26.4667 15.0577 26.2531 15.3623 26.1269C15.6668 26.0008 16.0019 25.9678 16.3252 26.0321C16.6485 26.0964 16.9455 26.2551 17.1786 26.4882C17.4117 26.7213 17.5704 27.0183 17.6347 27.3416C17.699 27.6649 17.666 28 17.5399 28.3046C17.4137 28.6091 17.2001 28.8694 16.926 29.0525C16.6519 29.2357 16.3297 29.3334 16.0001 29.3334C15.5581 29.3334 15.1341 29.1578 14.8216 28.8453C14.509 28.5327 14.3334 28.1088 14.3334 27.6667Z" fill="white"/>
</g>
<defs>
<clipPath id="clip0_168_18337">
<rect width="32" height="32" fill="white"/>
</clipPath>
</defs>
</svg>
