<svg width="14" height="14" viewBox="0 0 14 14" fill="none" xmlns="http://www.w3.org/2000/svg">
<path fill-rule="evenodd" clip-rule="evenodd" d="M2.757 11.242C1.22066 9.73052 0.613036 7.51111 1.1652 5.42781C1.71736 3.34451 3.34447 1.7174 5.42777 1.16524C7.51108 0.613074 9.73048 1.22069 11.242 2.75704C12.7783 4.26856 13.386 6.48796 12.8338 8.57126C12.2816 10.6546 10.6545 12.2817 8.57123 12.8338C6.48792 13.386 4.26852 12.7784 2.757 11.242ZM2.091 7.00004C2.091 9.7112 4.28883 11.909 7 11.909C9.71116 11.909 11.909 9.7112 11.909 7.00004C11.909 4.28887 9.71116 2.09104 7 2.09104C4.2902 2.09434 2.0943 4.29024 2.091 7.00004ZM6.614 7.38604L8.251 9.02204C8.38872 9.15976 8.58946 9.21355 8.7776 9.16314C8.96574 9.11273 9.11269 8.96578 9.1631 8.77764C9.21351 8.5895 9.15972 8.38876 9.022 8.25104L7.545 6.77404V3.72704C7.545 3.42577 7.30077 3.18154 6.9995 3.18154C6.69823 3.18154 6.454 3.42577 6.454 3.72704V7.00004C6.45382 7.14487 6.51141 7.2838 6.614 7.38604Z" fill="#64748B"/>
<mask id="mask0_169_14995" style="mask-type:luminance" maskUnits="userSpaceOnUse" x="0" y="0" width="14" height="14">
<path fill-rule="evenodd" clip-rule="evenodd" d="M2.757 11.242C1.22066 9.73052 0.613036 7.51111 1.1652 5.42781C1.71736 3.34451 3.34447 1.7174 5.42777 1.16524C7.51108 0.613074 9.73048 1.22069 11.242 2.75704C12.7783 4.26856 13.386 6.48796 12.8338 8.57126C12.2816 10.6546 10.6545 12.2817 8.57123 12.8338C6.48792 13.386 4.26852 12.7784 2.757 11.242ZM2.091 7.00004C2.091 9.7112 4.28883 11.909 7 11.909C9.71116 11.909 11.909 9.7112 11.909 7.00004C11.909 4.28887 9.71116 2.09104 7 2.09104C4.2902 2.09434 2.0943 4.29024 2.091 7.00004ZM8.251 9.02204L6.614 7.38604C6.51141 7.2838 6.45382 7.14487 6.454 7.00004V3.72704C6.454 3.42577 6.69823 3.18154 6.9995 3.18154C7.30077 3.18154 7.545 3.42577 7.545 3.72704V6.77404L9.022 8.25104C9.15972 8.38876 9.21351 8.5895 9.1631 8.77764C9.11269 8.96578 8.96574 9.11273 8.7776 9.16314C8.58946 9.21355 8.38872 9.15976 8.251 9.02204Z" fill="white"/>
</mask>
<g mask="url(#mask0_169_14995)">
<rect x="0.449997" y="0.449951" width="13.091" height="13.091" fill="#64748B"/>
</g>
</svg>
