<svg width="24" height="20" viewBox="0 0 24 20" fill="none" xmlns="http://www.w3.org/2000/svg">
<path fill-rule="evenodd" clip-rule="evenodd" d="M21 20C22.6569 20 24 18.6569 24 17V6C24 4.34315 22.6569 3 21 3H17.536L15.832 0.446C15.6467 0.16755 15.3345 0.000172861 15 1.12311e-08H9C8.66572 -5.00008e-05 8.35353 0.16693 8.168 0.445L6.465 3H3C1.34315 3 0 4.34315 0 6V17C0 18.6569 1.34315 20 3 20H21ZM2 6C2 5.44772 2.44772 5 3 5H7C7.33569 5.00139 7.64969 4.83425 7.836 4.555L9.536 2H14.465L16.167 4.554C16.3525 4.83275 16.6652 5.00016 17 5H21C21.5523 5 22 5.44772 22 6V17C22 17.5523 21.5523 18 21 18H3C2.44772 18 2 17.5523 2 17V6ZM12 16C9.23858 16 7 13.7614 7 11C7 8.23858 9.23858 6 12 6C14.7614 6 17 8.23858 17 11C16.9967 13.7601 14.7601 15.9967 12 16ZM9 11C9 9.34315 10.3431 8 12 8C13.6569 8 15 9.34315 15 11C15 12.6569 13.6569 14 12 14C10.3431 14 9 12.6569 9 11Z" fill="white"/>
<mask id="mask0_167_11348" style="mask-type:luminance" maskUnits="userSpaceOnUse" x="0" y="0" width="24" height="20">
<path fill-rule="evenodd" clip-rule="evenodd" d="M21 20H3C1.34315 20 0 18.6569 0 17V6C0 4.34315 1.34315 3 3 3H6.465L8.168 0.445C8.35353 0.16693 8.66572 -5.0012e-05 9 1.12361e-08H15C15.3345 0.000172849 15.6467 0.16755 15.832 0.446L17.536 3H21C22.6569 3 24 4.34315 24 6V17C24 18.6569 22.6569 20 21 20ZM3 5C2.44772 5 2 5.44772 2 6V17C2 17.5523 2.44772 18 3 18H21C21.5523 18 22 17.5523 22 17V6C22 5.44772 21.5523 5 21 5H17C16.6652 5.00016 16.3525 4.83275 16.167 4.554L14.465 2H9.536L7.836 4.555C7.64969 4.83425 7.33569 5.00139 7 5H3ZM12 16C9.23858 16 7 13.7614 7 11C7 8.23858 9.23858 6 12 6C14.7614 6 17 8.23858 17 11C16.9967 13.7601 14.7601 15.9967 12 16ZM12 8C10.3431 8 9 9.34315 9 11C9 12.6569 10.3431 14 12 14C13.6569 14 15 12.6569 15 11C15 9.34315 13.6569 8 12 8Z" fill="white"/>
</mask>
<g mask="url(#mask0_167_11348)">
<rect y="-2" width="24" height="24" fill="white"/>
</g>
</svg>
