<svg width="25" height="21" viewBox="0 0 25 21" fill="none" xmlns="http://www.w3.org/2000/svg">
<path fill-rule="evenodd" clip-rule="evenodd" d="M4.40039 5.5C4.40039 8.26142 6.63897 10.5 9.40039 10.5C12.1604 10.4967 14.3971 8.26005 14.4004 5.5C14.4004 2.73858 12.1618 0.5 9.40039 0.5C6.63897 0.5 4.40039 2.73858 4.40039 5.5ZM17.4004 20.5C16.8481 20.5 16.4004 20.0523 16.4004 19.5V17.5C16.4004 15.8431 15.0572 14.5 13.4004 14.5H5.40039C3.74354 14.5 2.40039 15.8431 2.40039 17.5V19.5C2.40039 20.0523 1.95268 20.5 1.40039 20.5C0.848106 20.5 0.400391 20.0523 0.400391 19.5V17.5C0.403697 14.7399 2.64034 12.5033 5.40039 12.5H13.4004C16.1604 12.5033 18.3971 14.7399 18.4004 17.5V19.5C18.4004 20.0523 17.9527 20.5 17.4004 20.5ZM23.4004 20.5001C22.8481 20.5001 22.4004 20.0524 22.4004 19.5001V17.5001C22.3982 16.1339 21.4732 14.9416 20.1504 14.6001C19.6155 14.462 19.2938 13.9165 19.4319 13.3816C19.57 12.8467 20.1155 12.525 20.6504 12.6631C22.8565 13.2327 24.3985 15.2217 24.4004 17.5001V19.5001C24.4004 19.7653 24.295 20.0197 24.1075 20.2072C23.92 20.3947 23.6656 20.5001 23.4004 20.5001ZM9.40039 2.5C7.74354 2.5 6.40039 3.84315 6.40039 5.5C6.40039 7.15685 7.74354 8.5 9.40039 8.5C11.0572 8.5 12.4004 7.15685 12.4004 5.5C12.4004 3.84315 11.0572 2.5 9.40039 2.5ZM15.4073 9.50484C15.4703 10.0052 15.8961 10.3804 16.4004 10.3799C16.4854 10.3805 16.5701 10.37 16.6524 10.3489C18.8653 9.78277 20.4132 7.78901 20.4132 5.50488C20.4132 3.22074 18.8653 1.22699 16.6524 0.660879C16.1172 0.522807 15.5715 0.844715 15.4334 1.37988C15.2953 1.91504 15.6172 2.46081 16.1524 2.59888C17.4794 2.93911 18.4073 4.135 18.4073 5.50488C18.4073 6.87476 17.4794 8.07065 16.1524 8.41088C15.6637 8.53548 15.3443 9.00447 15.4073 9.50484Z" fill="#333333"/>
<mask id="mask0_496_372" style="mask-type:luminance" maskUnits="userSpaceOnUse" x="0" y="0" width="25" height="21">
<path fill-rule="evenodd" clip-rule="evenodd" d="M23.4004 20.5001C22.8481 20.5001 22.4004 20.0524 22.4004 19.5001V17.5001C22.3982 16.1339 21.4732 14.9416 20.1504 14.6001C19.6155 14.462 19.2938 13.9165 19.4319 13.3816C19.57 12.8467 20.1155 12.525 20.6504 12.6631C22.8565 13.2327 24.3985 15.2217 24.4004 17.5001V19.5001C24.4004 19.7653 24.295 20.0197 24.1075 20.2072C23.92 20.3947 23.6656 20.5001 23.4004 20.5001ZM17.4004 20.5C16.8481 20.5 16.4004 20.0523 16.4004 19.5V17.5C16.4004 15.8431 15.0572 14.5 13.4004 14.5H5.40039C3.74354 14.5 2.40039 15.8431 2.40039 17.5V19.5C2.40039 20.0523 1.95268 20.5 1.40039 20.5C0.848106 20.5 0.400391 20.0523 0.400391 19.5V17.5C0.403697 14.7399 2.64034 12.5033 5.40039 12.5H13.4004C16.1604 12.5033 18.3971 14.7399 18.4004 17.5V19.5C18.4004 20.0523 17.9527 20.5 17.4004 20.5ZM9.40039 10.5C6.63897 10.5 4.40039 8.26142 4.40039 5.5C4.40039 2.73858 6.63897 0.5 9.40039 0.5C12.1618 0.5 14.4004 2.73858 14.4004 5.5C14.3971 8.26005 12.1604 10.4967 9.40039 10.5ZM9.40039 2.5C7.74354 2.5 6.40039 3.84315 6.40039 5.5C6.40039 7.15685 7.74354 8.5 9.40039 8.5C11.0572 8.5 12.4004 7.15685 12.4004 5.5C12.4004 3.84315 11.0572 2.5 9.40039 2.5ZM16.4004 10.3799C15.8961 10.3804 15.4703 10.0052 15.4073 9.50484C15.3443 9.00447 15.6637 8.53548 16.1524 8.41088C17.4794 8.07065 18.4073 6.87476 18.4073 5.50488C18.4073 4.135 17.4794 2.93911 16.1524 2.59888C15.6172 2.46081 15.2953 1.91504 15.4334 1.37988C15.5715 0.844715 16.1172 0.522807 16.6524 0.660879C18.8653 1.22699 20.4132 3.22074 20.4132 5.50488C20.4132 7.78901 18.8653 9.78277 16.6524 10.3489C16.5701 10.37 16.4854 10.3805 16.4004 10.3799Z" fill="white"/>
</mask>
<g mask="url(#mask0_496_372)">
<rect x="0.400391" y="-1.5" width="24" height="24" fill="#333333"/>
</g>
</svg>
