<svg width="12" height="12" viewBox="0 0 12 12" fill="none" xmlns="http://www.w3.org/2000/svg">
<path fill-rule="evenodd" clip-rule="evenodd" d="M3 12C2.00589 12 1.2 11.2674 1.2 10.3636V3.27273H0.6C0.268629 3.27273 0 3.02852 0 2.72727C0 2.42603 0.268629 2.18182 0.6 2.18182H3V1.63636C3 0.732625 3.80589 0 4.8 0H7.2C8.19411 0 9 0.732625 9 1.63636V2.18182H11.4C11.7314 2.18182 12 2.42603 12 2.72727C12 3.02852 11.7314 3.27273 11.4 3.27273H10.8V10.3636C10.8 11.2674 9.99411 12 9 12H3ZM2.4 10.3636C2.4 10.6649 2.66863 10.9091 3 10.9091H9C9.33137 10.9091 9.6 10.6649 9.6 10.3636V3.27273H2.4V10.3636ZM7.8 1.63636V2.18182H4.2V1.63636C4.2 1.33512 4.46863 1.09091 4.8 1.09091H7.2C7.53137 1.09091 7.8 1.33512 7.8 1.63636ZM6.6 8.72727V5.45455C6.6 5.1533 6.86863 4.90909 7.2 4.90909C7.53137 4.90909 7.8 5.1533 7.8 5.45455V8.72727C7.8 9.02852 7.53137 9.27273 7.2 9.27273C6.86863 9.27273 6.6 9.02852 6.6 8.72727ZM4.2 5.45455V8.72727C4.2 9.02852 4.46863 9.27273 4.8 9.27273C5.13137 9.27273 5.4 9.02852 5.4 8.72727V5.45455C5.4 5.1533 5.13137 4.90909 4.8 4.90909C4.46863 4.90909 4.2 5.1533 4.2 5.45455Z" fill="#EB9A44"/>
<mask id="mask0_916_3896" style="mask-type:luminance" maskUnits="userSpaceOnUse" x="0" y="0" width="12" height="12">
<path fill-rule="evenodd" clip-rule="evenodd" d="M3 12C2.00589 12 1.2 11.2674 1.2 10.3636V3.27273H0.6C0.268629 3.27273 0 3.02852 0 2.72727C0 2.42603 0.268629 2.18182 0.6 2.18182H3V1.63636C3 0.732625 3.80589 0 4.8 0H7.2C8.19411 0 9 0.732625 9 1.63636V2.18182H11.4C11.7314 2.18182 12 2.42603 12 2.72727C12 3.02852 11.7314 3.27273 11.4 3.27273H10.8V10.3636C10.8 11.2674 9.99411 12 9 12H3ZM2.4 10.3636C2.4 10.6649 2.66863 10.9091 3 10.9091H9C9.33137 10.9091 9.6 10.6649 9.6 10.3636V3.27273H2.4V10.3636ZM7.8 2.18182V1.63636C7.8 1.33512 7.53137 1.09091 7.2 1.09091H4.8C4.46863 1.09091 4.2 1.33512 4.2 1.63636V2.18182H7.8ZM6.6 8.72727V5.45455C6.6 5.1533 6.86863 4.90909 7.2 4.90909C7.53137 4.90909 7.8 5.1533 7.8 5.45455V8.72727C7.8 9.02852 7.53137 9.27273 7.2 9.27273C6.86863 9.27273 6.6 9.02852 6.6 8.72727ZM4.2 8.72727V5.45455C4.2 5.1533 4.46863 4.90909 4.8 4.90909C5.13137 4.90909 5.4 5.1533 5.4 5.45455V8.72727C5.4 9.02852 5.13137 9.27273 4.8 9.27273C4.46863 9.27273 4.2 9.02852 4.2 8.72727Z" fill="white"/>
</mask>
<g mask="url(#mask0_916_3896)">
<rect x="-1.19995" y="-0.546387" width="14.4" height="13.0909" fill="#EB9A44"/>
</g>
</svg>
