<svg width="41" height="41" viewBox="0 0 41 41" fill="none" xmlns="http://www.w3.org/2000/svg">
<rect opacity="0.1" width="41" height="41" rx="20.5" fill="#4598D1"/>
<path opacity="0.4" fill-rule="evenodd" clip-rule="evenodd" d="M17.241 13.114H23.799L23.8 13.113V11.587H17.241V13.114ZM12.377 17.464H10.898V17.054C10.8318 15.7686 11.2053 14.4989 11.957 13.454L11.971 13.441C11.9947 13.4118 12.0199 13.3831 12.0452 13.3542L12.0452 13.3542L12.0452 13.3542C12.0701 13.3258 12.0952 13.2973 12.119 13.268L12.207 13.168L12.221 13.154C12.4512 12.9185 12.7071 12.7095 12.984 12.531L13.04 12.496C13.0722 12.4745 13.1056 12.4548 13.14 12.437L13.323 12.33L13.436 12.275L13.551 12.219C13.578 12.209 13.605 12.197 13.632 12.184C13.6475 12.1766 13.6646 12.1698 13.6805 12.1635L13.6805 12.1635C13.6924 12.1588 13.7036 12.1543 13.713 12.15C13.822 12.104 13.929 12.063 14.031 12.03C14.0677 12.0117 14.1063 11.9973 14.146 11.987C14.1605 11.9797 14.1756 11.9733 14.191 11.968L14.237 11.952V11.959C14.7287 11.8059 15.2352 11.7046 15.748 11.657V11.649L15.766 11.656V13.176H15.753C15.2276 13.2226 14.7126 13.3511 14.227 13.557C12.966 14.124 12.378 15.234 12.378 17.051V17.463L12.377 17.464ZM30.102 17.464H28.624V17.04C28.6547 16.2816 28.5021 15.5269 28.179 14.84C27.8732 14.2591 27.3742 13.8032 26.768 13.551C26.2914 13.3453 25.785 13.217 25.268 13.171V11.654C25.7811 11.7011 26.2878 11.8017 26.78 11.954V11.947C26.8022 11.9573 26.8249 11.9663 26.848 11.974L26.866 11.987L26.907 12.002C26.932 12.012 26.956 12.02 26.981 12.028C27.0473 12.0502 27.1106 12.0743 27.1745 12.0987L27.1745 12.0987L27.1748 12.0988C27.2003 12.1085 27.226 12.1183 27.252 12.128L27.291 12.143C27.34 12.161 27.386 12.182 27.427 12.201L27.453 12.213C27.5448 12.2516 27.6231 12.2935 27.6702 12.3187L27.682 12.325C27.727 12.349 27.774 12.375 27.816 12.399L27.872 12.43C27.896 12.4431 27.9173 12.4572 27.9379 12.4709L27.961 12.486C27.9738 12.4943 27.983 12.5006 27.9912 12.5062C28.0009 12.5129 28.0091 12.5185 28.02 12.525C28.2975 12.7043 28.555 12.9129 28.788 13.147L28.797 13.161C28.8829 13.2479 28.9641 13.3393 29.04 13.435L29.046 13.449C29.7967 14.4943 30.1694 15.7639 30.103 17.049V17.461L30.102 17.464Z" fill="#4598D1"/>
<path d="M25.305 13.954C25.305 14.3787 24.9607 14.723 24.536 14.723C24.1113 14.723 23.767 14.3787 23.767 13.954V10.597C23.764 10.1723 24.1058 9.82557 24.5305 9.82253C24.9552 9.81949 25.302 10.1613 25.305 10.586V13.954Z" fill="#4598D1"/>
<path d="M17.233 13.959C17.2431 14.2402 17.0989 14.5045 16.857 14.6481C16.615 14.7916 16.314 14.7916 16.072 14.6481C15.8301 14.5045 15.6859 14.2402 15.696 13.959V10.602C15.6859 10.3209 15.8301 10.0566 16.072 9.91299C16.314 9.7694 16.615 9.7694 16.857 9.91299C17.0989 10.0566 17.2431 10.3209 17.233 10.602V13.959Z" fill="#4598D1"/>
<path fill-rule="evenodd" clip-rule="evenodd" d="M24.098 31.177H16.891C12.908 31.177 10.891 29.349 10.891 25.743V17.464H30.11V25.743C30.11 29.349 28.091 31.177 24.098 31.177ZM24.886 25.035C24.3944 25.0464 24.003 25.4503 24.007 25.942C24.0089 26.4334 24.3998 26.8349 24.891 26.85C25.3805 26.8337 25.7689 26.4322 25.7689 25.9425C25.7689 25.4527 25.3805 25.0512 24.891 25.035H24.886ZM19.611 25.942C19.608 25.4488 19.9981 25.0428 20.491 25.026H20.5C20.9841 25.0285 21.3764 25.4195 21.3804 25.9037C21.3844 26.3878 20.9986 26.7853 20.5146 26.7958C20.0306 26.8063 19.628 26.4258 19.611 25.942ZM16.101 25.026C15.8671 25.0258 15.6431 25.1203 15.48 25.288C15.1873 25.5858 15.1455 26.0488 15.3802 26.3942C15.6148 26.7396 16.0606 26.8714 16.4453 26.7091C16.83 26.5468 17.0467 26.1355 16.963 25.7264C16.8793 25.3173 16.5185 25.0242 16.101 25.026ZM24.2609 21.4328C24.4263 21.2621 24.6534 21.1653 24.891 21.164C25.3736 21.1637 25.7664 21.552 25.7715 22.0346C25.7767 22.5171 25.3922 22.9138 24.9098 22.9238C24.4273 22.9338 24.0268 22.5533 24.012 22.071C24.0058 21.8334 24.0955 21.6034 24.2609 21.4328ZM20.491 21.154C19.9981 21.1718 19.6085 21.5778 19.611 22.071C19.6285 22.5547 20.0313 22.9346 20.5152 22.9238C20.9991 22.9129 21.3845 22.5154 21.3804 22.0314C21.3762 21.5474 20.984 21.1565 20.5 21.154H20.491ZM15.2307 22.066C15.2307 21.5784 15.6139 21.1768 16.101 21.154H16.11C16.6005 21.1649 16.9899 21.5704 16.981 22.061C16.9872 22.3054 16.8937 22.5419 16.722 22.716C16.559 22.8838 16.3349 22.9783 16.101 22.978C15.6139 22.9552 15.2307 22.5536 15.2307 22.066Z" fill="#4598D1"/>
</svg>
