<svg width="12" height="12" viewBox="0 0 12 12" fill="none" xmlns="http://www.w3.org/2000/svg">
<path fill-rule="evenodd" clip-rule="evenodd" d="M3.1728 6.38133L5.5728 8.56331L5.5704 8.56713C5.68312 8.6709 5.83687 8.72931 5.9973 8.72931C6.15772 8.72931 6.31147 8.6709 6.4242 8.56713L8.82419 6.38514C9.05158 6.1711 9.04833 5.83087 8.81689 5.62046C8.58545 5.41004 8.21122 5.40709 7.9758 5.61381L6.6 6.86464V0.544519C6.6 0.24325 6.33137 -0.000976562 6 -0.000976562C5.66862 -0.000976562 5.4 0.24325 5.4 0.544519V6.86464L4.0212 5.61C3.78577 5.40327 3.41154 5.40622 3.1801 5.61664C2.94866 5.82706 2.94541 6.16729 3.1728 6.38133ZM0 10.3625C0 11.2663 0.805887 11.999 1.8 11.999H10.2C11.1941 11.999 12 11.2663 12 10.3625V8.72605C12 8.42478 11.7314 8.18055 11.4 8.18055C11.0686 8.18055 10.8 8.42478 10.8 8.72605V10.3625C10.8 10.6638 10.5314 10.908 10.2 10.908H1.8C1.46863 10.908 1.2 10.6638 1.2 10.3625V8.72605C1.2 8.42478 0.931371 8.18055 0.6 8.18055C0.268629 8.18055 0 8.42478 0 8.72605V10.3625Z" fill="#EB9A44"/>
<mask id="mask0_894_5095" style="mask-type:luminance" maskUnits="userSpaceOnUse" x="0" y="-1" width="12" height="13">
<path fill-rule="evenodd" clip-rule="evenodd" d="M1.8 11.999C0.805887 11.999 0 11.2663 0 10.3625V8.72605C0 8.42478 0.268629 8.18055 0.6 8.18055C0.931371 8.18055 1.2 8.42478 1.2 8.72605V10.3625C1.2 10.6638 1.46863 10.908 1.8 10.908H10.2C10.5314 10.908 10.8 10.6638 10.8 10.3625V8.72605C10.8 8.42478 11.0686 8.18055 11.4 8.18055C11.7314 8.18055 12 8.42478 12 8.72605V10.3625C12 11.2663 11.1941 11.999 10.2 11.999H1.8ZM5.5728 8.56331L3.1728 6.38133C2.94541 6.16729 2.94866 5.82706 3.1801 5.61664C3.41154 5.40622 3.78577 5.40327 4.0212 5.61L5.4 6.86464V0.544519C5.4 0.24325 5.66862 -0.000976562 6 -0.000976562C6.33137 -0.000976563 6.6 0.24325 6.6 0.544519V6.86464L7.9758 5.61381C8.21122 5.40709 8.58545 5.41004 8.81689 5.62046C9.04833 5.83087 9.05158 6.1711 8.82419 6.38514L6.4242 8.56713C6.31147 8.6709 6.15772 8.72931 5.9973 8.72931C5.83687 8.72931 5.68312 8.6709 5.5704 8.56713L5.5728 8.56331Z" fill="white"/>
</mask>
<g mask="url(#mask0_894_5095)">
<rect x="-1.19995" y="-0.549316" width="14.4" height="13.0919" fill="#EB9A44"/>
</g>
</svg>
