<svg width="18" height="19" viewBox="0 0 18 19" fill="none" xmlns="http://www.w3.org/2000/svg">
<circle cx="9" cy="9.72266" r="9" fill="#4598D1"/>
<path d="M10.337 9.98871C10.337 10.7264 9.73909 11.3245 9.00137 11.3247C8.26365 11.3249 7.66541 10.7271 7.66504 9.98938C7.66467 9.25165 8.26232 8.65326 9.00004 8.65271C9.35437 8.65271 9.69419 8.79347 9.94473 9.04402C10.1953 9.29456 10.336 9.63438 10.336 9.98871H10.337Z" fill="white"/>
<path fill-rule="evenodd" clip-rule="evenodd" d="M5.79312 7.58365C5.20273 7.58365 4.72412 8.06226 4.72412 8.65265V11.8606C4.72412 12.451 5.20273 12.9296 5.79312 12.9296H12.2081C12.7985 12.9296 13.2771 12.451 13.2771 11.8606V8.65265C13.2771 8.36913 13.1645 8.09723 12.964 7.89675C12.7635 7.69628 12.4916 7.58365 12.2081 7.58365H11.5821C11.2979 7.58424 11.0251 7.4716 10.8241 7.27065L10.3811 6.82765C10.1804 6.62694 9.908 6.51433 9.62412 6.51465H8.37412C8.09058 6.51459 7.81864 6.62719 7.61812 6.82765L7.17512 7.27065C6.9746 7.47111 6.70266 7.5837 6.41912 7.58365H5.79312ZM6.06012 8.65265C6.16811 8.65265 6.26547 8.5876 6.3068 8.48783C6.34812 8.38805 6.32528 8.27321 6.24892 8.19685C6.17256 8.12049 6.05772 8.09765 5.95794 8.13897C5.85817 8.1803 5.79312 8.27766 5.79312 8.38565C5.79312 8.53311 5.91266 8.65265 6.06012 8.65265ZM10.8721 9.98965C10.8699 11.0225 10.0313 11.8581 8.99846 11.8566C7.96566 11.8552 7.12939 11.0171 7.13013 9.98432C7.13086 8.95152 7.96832 8.11465 9.00112 8.11465C9.49803 8.11465 9.97454 8.31232 10.3255 8.66407C10.6765 9.01581 10.8732 9.49274 10.8721 9.98965Z" fill="white"/>
</svg>
