<svg width="336" height="225" viewBox="0 0 336 225" fill="none" xmlns="http://www.w3.org/2000/svg">
<path fill-rule="evenodd" clip-rule="evenodd" d="M166.959 24.5049H167.146C190.407 24.5014 212.715 33.7401 229.163 50.1878C245.611 66.6355 254.849 88.9443 254.846 112.205V112.392C254.849 135.652 245.611 157.961 229.163 174.409C212.715 190.857 190.407 200.095 167.146 200.092H166.959C143.698 200.095 121.39 190.857 104.942 174.409C88.4943 157.961 79.2556 135.652 79.259 112.392V112.205C79.2651 63.772 118.526 24.511 166.959 24.5049Z" stroke="#E1E4E5" stroke-width="5" stroke-linecap="round" stroke-linejoin="bevel" stroke-dasharray="11.32"/>
<ellipse cx="77.84" cy="112.314" rx="12.917" ry="12.731" fill="white" stroke="#E1E4E5" stroke-width="5"/>
<ellipse cx="167.067" cy="23.124" rx="12.731" ry="12.917" fill="white" stroke="#E1E4E5" stroke-width="5"/>
<ellipse cx="256.256" cy="112.314" rx="12.917" ry="12.731" fill="white" stroke="#E1E4E5" stroke-width="5"/>
<ellipse cx="167.067" cy="201.502" rx="12.731" ry="12.917" fill="white" stroke="#E1E4E5" stroke-width="5"/>
<path fill-rule="evenodd" clip-rule="evenodd" d="M222.171 125.604V80.879C222.156 73.1779 217.318 66.3115 210.071 63.706L182.146 53.701C172.512 50.2663 161.988 50.2663 152.354 53.701L124.399 63.743C117.156 66.332 112.315 73.187 112.299 80.879V125.567C112.299 148.788 144.928 165.962 159.899 172.682C164.553 174.773 169.88 174.773 174.534 172.682C189.579 165.999 222.171 148.788 222.171 125.604Z" fill="#0D95D1"/>
<circle cx="267.046" cy="78.1909" r="7.355" fill="#EB9A44"/>
<circle cx="71.755" cy="71.9562" r="6.048" fill="#EB9A44"/>
<circle cx="93.446" cy="184.927" r="6.907" fill="#EB9A44"/>
<circle cx="236.395" cy="142.255" r="3.211" fill="#0D95D1"/>
<circle cx="199.771" cy="178.02" r="4.144" fill="#E1E4E5"/>
<circle cx="67.872" cy="145.39" r="5.973" fill="#E1E4E5"/>
<circle cx="217.616" cy="204.564" r="4.555" fill="#E1E4E5"/>
<ellipse cx="233.334" cy="33.316" rx="2.427" ry="2.651" fill="#E1E4E5"/>
<circle cx="115.584" cy="160.1" r="4.555" fill="#E1E4E5"/>
<circle cx="102.069" cy="31.4118" r="1.904" fill="#E1E4E5"/>
<ellipse cx="257.114" cy="169.247" rx="4.629" ry="3.696" fill="#E1E4E5"/>
<circle cx="200.442" cy="47.2039" r="3.285" fill="#E1E4E5"/>
</svg>
