<svg width="336" height="225" viewBox="0 0 336 225" fill="none" xmlns="http://www.w3.org/2000/svg">
<path fill-rule="evenodd" clip-rule="evenodd" d="M166.959 24.5049H167.146C190.407 24.5014 212.715 33.7401 229.163 50.1878C245.611 66.6355 254.849 88.9443 254.846 112.205V112.392C254.849 135.652 245.611 157.961 229.163 174.409C212.715 190.857 190.407 200.095 167.146 200.092H166.959C143.698 200.095 121.39 190.857 104.942 174.409C88.4942 157.961 79.2556 135.652 79.259 112.392V112.205C79.2651 63.772 118.526 24.511 166.959 24.5049Z" stroke="#E1E4E5" stroke-width="5" stroke-linecap="round" stroke-linejoin="bevel" stroke-dasharray="11.32"/>
<ellipse cx="77.84" cy="112.314" rx="12.917" ry="12.731" fill="white" stroke="#E1E4E5" stroke-width="5"/>
<ellipse cx="167.067" cy="23.124" rx="12.731" ry="12.917" fill="white" stroke="#E1E4E5" stroke-width="5"/>
<ellipse cx="256.256" cy="112.314" rx="12.917" ry="12.731" fill="white" stroke="#E1E4E5" stroke-width="5"/>
<ellipse cx="167.067" cy="201.502" rx="12.731" ry="12.917" fill="white" stroke="#E1E4E5" stroke-width="5"/>
<path fill-rule="evenodd" clip-rule="evenodd" d="M222.171 125.604V80.879C222.156 73.1779 217.318 66.3115 210.071 63.706L182.146 53.701C172.512 50.2663 161.988 50.2663 152.354 53.701L124.399 63.743C117.156 66.332 112.315 73.187 112.299 80.879V125.567C112.299 148.788 144.928 165.962 159.899 172.682C164.553 174.773 169.88 174.773 174.534 172.682C189.579 165.999 222.171 148.788 222.171 125.604Z" fill="#0D95D1"/>
<path fill-rule="evenodd" clip-rule="evenodd" d="M222.171 125.604V80.879C222.156 73.1779 217.318 66.3115 210.071 63.706L182.146 53.701C172.512 50.2663 161.988 50.2663 152.354 53.701L124.399 63.743C117.156 66.332 112.315 73.187 112.299 80.879V125.567C112.299 148.788 144.928 165.962 159.899 172.682C164.553 174.773 169.88 174.773 174.534 172.682C189.579 165.999 222.171 148.788 222.171 125.604Z" fill="#0D95D1"/>
<path d="M144.368 97.0811H190.101V136.916H144.368V97.0811Z" fill="white"/>
<path fill-rule="evenodd" clip-rule="evenodd" d="M167.44 100.106C161.728 100.106 156.651 100.33 152.507 100.629C148.468 100.996 145.35 104.339 145.264 108.394C145.077 111.418 144.928 114.594 144.928 117.578C144.928 120.562 145.077 123.738 145.264 126.762C145.564 131.018 148.587 134.262 152.507 134.527C162.462 135.198 172.452 135.198 182.407 134.527C186.446 134.159 189.564 130.816 189.65 126.762C189.837 123.738 189.986 120.562 189.986 117.578C189.986 114.594 189.837 111.418 189.65 108.394C189.35 104.138 186.327 100.894 182.407 100.629C177.407 100.293 172.402 100.106 167.436 100.106H167.44ZM152.059 93.6466C144.928 94.1316 139.291 100.147 138.806 107.908C138.582 111.044 138.433 114.408 138.433 117.577C138.433 120.788 138.582 124.148 138.806 127.246C139.329 134.974 144.929 140.985 152.059 141.507C162.288 142.216 172.555 142.216 182.784 141.507C189.915 141.022 195.552 135.007 196.037 127.246C196.261 124.11 196.41 120.746 196.41 117.577C196.41 114.366 196.261 111.006 196.037 107.908C195.514 100.18 189.914 94.1686 182.784 93.6466C172.553 92.9746 162.29 92.9746 152.059 93.6466Z" fill="white"/>
<path fill-rule="evenodd" clip-rule="evenodd" d="M151.237 90.7354C151.237 81.8282 158.458 74.6074 167.365 74.6074C176.272 74.6074 183.493 81.8282 183.493 90.7354V103.652C183.519 105.432 182.099 106.897 180.319 106.928C178.539 106.959 177.07 105.544 177.034 103.764V90.7354C177.034 85.3951 172.705 81.0659 167.365 81.0659C162.024 81.0659 157.695 85.3951 157.695 90.7354V103.652C157.724 104.809 157.128 105.892 156.135 106.487C155.142 107.082 153.906 107.096 152.9 106.525C151.893 105.953 151.272 104.885 151.274 103.727V103.652L151.237 90.7354H151.237Z" fill="white"/>
<path fill-rule="evenodd" clip-rule="evenodd" d="M170.614 121.61C173.326 120.038 174.52 116.746 173.445 113.8C172.371 110.855 169.338 109.105 166.25 109.649C163.162 110.194 160.91 112.875 160.907 116.01C160.911 118.313 162.132 120.443 164.118 121.61V125.717C164.118 126.568 164.456 127.385 165.058 127.988C165.66 128.59 166.477 128.928 167.329 128.928C168.181 128.928 168.998 128.59 169.6 127.988C170.202 127.385 170.54 126.568 170.54 125.717L170.615 121.61H170.614Z" fill="#0D95D1"/>
<circle cx="267.046" cy="78.1909" r="7.355" fill="#EB9A44"/>
<circle cx="71.755" cy="71.9562" r="6.048" fill="#EB9A44"/>
<circle cx="93.446" cy="184.927" r="6.907" fill="#EB9A44"/>
<circle cx="236.395" cy="142.255" r="3.211" fill="#0D95D1"/>
<circle cx="199.771" cy="178.02" r="4.144" fill="#E1E4E5"/>
<circle cx="67.872" cy="145.39" r="5.973" fill="#E1E4E5"/>
<circle cx="217.616" cy="204.564" r="4.555" fill="#E1E4E5"/>
<ellipse cx="233.334" cy="33.316" rx="2.427" ry="2.651" fill="#E1E4E5"/>
<circle cx="115.584" cy="160.1" r="4.555" fill="#E1E4E5"/>
<circle cx="102.069" cy="31.4118" r="1.904" fill="#E1E4E5"/>
<ellipse cx="257.114" cy="169.247" rx="4.629" ry="3.696" fill="#E1E4E5"/>
<circle cx="200.442" cy="47.2039" r="3.285" fill="#E1E4E5"/>
</svg>
