<svg width="24" height="24" viewBox="0 0 24 24" fill="none" xmlns="http://www.w3.org/2000/svg">
<path d="M24 12C24 18.6274 18.6274 24 12 24C5.37258 24 0 18.6274 0 12C0 5.37258 5.37258 0 12 0C15.1826 0 18.2348 1.26428 20.4853 3.51472C22.7357 5.76515 24 8.8174 24 12Z" fill="#F0F0F0"/>
<path d="M24.0001 12.0001C24.0015 6.98132 20.8795 2.49179 16.1741 0.746094V23.2531C20.8791 21.5075 24.001 17.0185 24.0001 12.0001Z" fill="#E50029"/>
<path d="M4.63877e-07 12.0001C-0.000971148 17.0185 3.12096 21.5075 7.826 23.2531V0.746094C3.12062 2.49179 -0.00138941 6.98132 4.63877e-07 12.0001Z" fill="#005DCC"/>
</svg>
