<svg width="23" height="23" viewBox="0 0 23 23" fill="none" xmlns="http://www.w3.org/2000/svg">
<path fill-rule="evenodd" clip-rule="evenodd" d="M11.5026 0.0869141C11.0036 0.0976734 10.5183 0.251808 10.1046 0.530914C9.70549 0.796908 9.32187 1.08537 8.95556 1.39491L8.91056 1.43091L3.27556 5.98691L3.10956 6.11591C2.25995 6.68454 1.54853 7.43628 1.02756 8.31591C0.672014 9.27353 0.535339 10.2986 0.627557 11.3159V11.5249V16.8349C0.627557 17.7259 0.627557 18.4699 0.679557 19.0729C0.713257 19.693 0.884022 20.2978 1.17956 20.8439C1.54162 21.4711 2.06241 21.9918 2.68956 22.3539C3.23567 22.6494 3.84052 22.8202 4.46056 22.8539C5.06656 22.9089 5.81056 22.9089 6.70156 22.9089H7.03556C7.35756 22.9089 7.65256 22.9089 7.90056 22.8919C8.19435 22.8785 8.48391 22.8167 8.75756 22.7089C9.39756 22.4405 9.90524 21.9296 10.1696 21.2879C10.2773 21.0143 10.3391 20.7247 10.3526 20.4309C10.3696 20.1829 10.3696 19.8869 10.3696 19.566V19.5659V19.5329C10.3696 19.1679 10.3706 18.9509 10.3816 18.7889C10.3837 18.7372 10.3901 18.6857 10.4006 18.6349C10.4386 18.5447 10.5103 18.4729 10.6006 18.4349C10.6513 18.4244 10.7028 18.4181 10.7546 18.4159C10.9166 18.4039 11.1336 18.4039 11.4986 18.4039C11.8636 18.4039 12.0806 18.4049 12.2426 18.4159C12.2943 18.4181 12.3458 18.4244 12.3966 18.4349C12.4868 18.4729 12.5586 18.5447 12.5966 18.6349C12.607 18.6857 12.6134 18.7372 12.6156 18.7889C12.6276 18.9509 12.6276 19.1679 12.6276 19.5329V19.5659C12.6276 19.8869 12.6276 20.1869 12.6446 20.4299C12.658 20.7237 12.7198 21.0133 12.8276 21.2869C13.0908 21.9305 13.5986 22.4434 14.2396 22.7129C14.5132 22.8207 14.8028 22.8825 15.0966 22.8959C15.3446 22.9129 15.6406 22.9129 15.9616 22.9129H16.2956C17.1876 22.9129 17.9316 22.9129 18.5366 22.8579C19.1566 22.8242 19.7614 22.6534 20.3076 22.3579C20.9347 21.9958 21.4555 21.4751 21.8176 20.8479C22.1131 20.3018 22.2839 19.697 22.3176 19.0769C22.3726 18.4709 22.3726 17.7269 22.3726 16.8359V11.5269V11.3179C22.4648 10.3006 22.3281 9.27553 21.9726 8.31791C21.4516 7.43828 20.7402 6.68654 19.8906 6.11791L19.7276 5.98691L14.0956 1.42991L14.0506 1.39391C13.6845 1.08475 13.3013 0.796615 12.9026 0.530914C12.4883 0.251442 12.0022 0.0972911 11.5026 0.0869141ZM10.3256 3.18198C10.636 2.91776 10.9601 2.67008 11.2966 2.43998C11.3554 2.39997 11.4185 2.36644 11.4846 2.33998L11.5046 2.33398L11.5246 2.33998C11.5896 2.36663 11.6516 2.40016 11.7096 2.43998C12.046 2.67008 12.3702 2.91776 12.6806 3.18198L18.3156 7.73598C19.4956 8.68698 19.7876 8.95798 19.9446 9.28698C20.1564 10.0129 20.2216 10.7736 20.1366 11.525V16.787C20.1366 17.742 20.1356 18.383 20.0906 18.875C20.0846 19.1696 20.0142 19.4594 19.8846 19.724C19.72 20.0089 19.4834 20.2455 19.1986 20.41C18.9339 20.5397 18.6442 20.61 18.3496 20.616C17.8616 20.662 17.2166 20.662 16.2616 20.662H16.0116C15.6466 20.662 15.4296 20.661 15.2676 20.65C15.2158 20.6478 15.1643 20.6415 15.1136 20.631C15.0233 20.593 14.9516 20.5212 14.9136 20.431C14.9031 20.3802 14.8967 20.3287 14.8946 20.277C14.8826 20.115 14.8826 19.898 14.8826 19.533V19.5C14.8826 19.178 14.8826 18.883 14.8656 18.635C14.8521 18.3412 14.7903 18.0516 14.6826 17.778C14.4161 17.1346 13.905 16.6234 13.2616 16.357C12.9879 16.2492 12.6984 16.1874 12.4046 16.174C12.1566 16.157 11.8606 16.157 11.5396 16.157H11.4746C11.1526 16.157 10.8576 16.157 10.6096 16.174C10.3158 16.1874 10.0262 16.2492 9.75256 16.357C9.10916 16.6234 8.59799 17.1346 8.33156 17.778C8.22381 18.0516 8.16198 18.3412 8.14856 18.635C8.13156 18.883 8.13156 19.179 8.13156 19.5V19.5V19.533C8.13156 19.898 8.13056 20.115 8.11956 20.277C8.11739 20.3287 8.11104 20.3802 8.10056 20.431C8.06255 20.5212 7.99078 20.593 7.90056 20.631C7.84982 20.6415 7.79832 20.6478 7.74656 20.65C7.58456 20.662 7.36756 20.662 7.00256 20.662H6.75256C5.79756 20.662 5.15656 20.661 4.66456 20.616C4.36993 20.61 4.08018 20.5397 3.81556 20.41C3.53067 20.2455 3.29409 20.0089 3.12956 19.724C2.99988 19.4594 2.92957 19.1696 2.92356 18.875C2.87756 18.387 2.87756 17.742 2.87756 16.787V11.529C2.78903 10.7769 2.85124 10.0147 3.06056 9.28698C3.21856 8.95398 3.51056 8.68699 4.68956 7.73298L10.3256 3.18198Z" fill="#333333"/>
</svg>
