<svg width="41" height="41" viewBox="0 0 41 41" fill="none" xmlns="http://www.w3.org/2000/svg">
<rect opacity="0.1" width="41" height="41" rx="20.5" fill="#EB9A44"/>
<path fill-rule="evenodd" clip-rule="evenodd" d="M13 29C13 30.6569 14.3431 32 16 32H21C21.5523 32 22 31.5523 22 31C22 30.4477 21.5523 30 21 30H16C15.4477 30 15 29.5523 15 29V13C15 12.4477 15.4477 12 16 12H21C21.5523 12 22 11.5523 22 11C22 10.4477 21.5523 10 21 10H16C14.3431 10 13 11.3431 13 13V29ZM27.293 24.293C26.9026 24.6835 26.9026 25.3165 27.293 25.707L27.298 25.712C27.6885 26.1024 28.3215 26.1024 28.712 25.712L32.712 21.712C33.0893 21.335 33.1043 20.7282 32.746 20.333L32.707 20.293L28.707 16.293C28.4559 16.033 28.0841 15.9288 27.7345 16.0203C27.3849 16.1118 27.1118 16.3849 27.0203 16.7345C26.9288 17.0841 27.033 17.4559 27.293 17.707L29.586 20H20C19.4477 20 19 20.4477 19 21C19 21.5523 19.4477 22 20 22H29.586L27.293 24.293Z" fill="#EB9A44"/>
<mask id="mask0_496_2263" style="mask-type:luminance" maskUnits="userSpaceOnUse" x="13" y="10" width="21" height="22">
<path fill-rule="evenodd" clip-rule="evenodd" d="M16 32C14.3431 32 13 30.6569 13 29V13C13 11.3431 14.3431 10 16 10H21C21.5523 10 22 10.4477 22 11C22 11.5523 21.5523 12 21 12H16C15.4477 12 15 12.4477 15 13V29C15 29.5523 15.4477 30 16 30H21C21.5523 30 22 30.4477 22 31C22 31.5523 21.5523 32 21 32H16ZM27.293 25.707C26.9026 25.3165 26.9026 24.6835 27.293 24.293L29.586 22H20C19.4477 22 19 21.5523 19 21C19 20.4477 19.4477 20 20 20H29.586L27.293 17.707C27.033 17.4559 26.9288 17.0841 27.0203 16.7345C27.1118 16.3849 27.3849 16.1118 27.7345 16.0203C28.0841 15.9288 28.4559 16.033 28.707 16.293L32.707 20.293L32.746 20.333C33.1043 20.7282 33.0893 21.335 32.712 21.712L28.712 25.712C28.3215 26.1024 27.6885 26.1024 27.298 25.712L27.293 25.707Z" fill="white"/>
</mask>
<g mask="url(#mask0_496_2263)">
<rect x="11" y="9" width="24" height="24" fill="#EB9A44"/>
</g>
</svg>
