<svg width="294" height="197" viewBox="0 0 294 197" fill="none" xmlns="http://www.w3.org/2000/svg">
<path d="M219.063 51.7216C219.072 41.7978 212.851 32.9363 203.514 29.5736L166.633 16.3106L166.862 15.6896L166.633 16.3106C154.067 11.8027 140.326 11.8027 127.76 16.3106L90.847 29.6106C81.529 32.9767 75.3138 41.8143 75.297 51.7216V110.98C75.297 126.072 85.848 139.269 99.078 149.919C112.243 160.536 127.923 168.408 137.788 172.851C143.767 175.562 150.625 175.562 156.604 172.851C166.469 168.408 182.149 160.536 195.314 149.919C208.514 139.302 219.095 126.072 219.095 111.013V51.7216H219.063Z" fill="white" stroke="#E1E4E5" stroke-width="4"/>
<path fill-rule="evenodd" clip-rule="evenodd" d="M207.106 107.97V59.0698C207.106 50.6519 201.826 43.1383 193.906 40.2868L163.464 29.3118C152.972 25.5224 141.485 25.5224 130.993 29.3118L100.485 40.2878C92.5651 43.1392 87.2849 50.6523 87.285 59.0698V107.97C87.285 133.385 122.859 152.201 139.225 159.551C144.304 161.837 150.12 161.837 155.199 159.551C171.532 152.237 207.106 133.388 207.106 107.97Z" fill="#4598D1"/>
<path d="M174.767 78.5732L143.538 109.606L124.787 90.9862" stroke="white" stroke-width="10" stroke-linecap="round" stroke-linejoin="round"/>
<circle cx="58.278" cy="76.0578" r="24.925" fill="#EB9A44"/>
<path fill-rule="evenodd" clip-rule="evenodd" d="M66.868 84.7801V86.0211C66.868 86.3502 66.7373 86.6659 66.5045 86.8986C66.2718 87.1313 65.9561 87.2621 65.627 87.2621H50.894C50.5649 87.2621 50.2492 87.1313 50.0165 86.8986C49.7837 86.6659 49.653 86.3502 49.653 86.0211V84.7801C49.653 81.0561 53.9 78.6711 58.244 78.6711C62.621 78.6381 66.868 81.0561 66.868 84.7801ZM61.315 67.8921C62.5463 69.1213 62.9155 70.9714 62.2504 72.5791C61.5852 74.1868 60.0168 75.2352 58.277 75.2352C56.5372 75.2352 54.9688 74.1868 54.3036 72.5791C53.6385 70.9714 54.0077 69.1213 55.239 67.8921C56.9217 66.2261 59.6323 66.2261 61.315 67.8921Z" fill="white"/>
<path d="M60.858 39.3083C64.876 41.3013 70.233 38.7533 70.233 38.7533C70.233 38.7533 69.057 32.9383 65.006 30.9463C60.988 28.9533 55.631 31.5013 55.631 31.5013C55.631 31.5013 56.84 37.3153 60.858 39.3083Z" fill="url(#paint0_linear_167_8412)"/>
<path d="M191.851 178.398C186.851 181.371 179.732 178.627 179.732 178.627C179.732 178.627 180.679 171.016 185.645 168.043C190.645 165.07 197.764 167.814 197.764 167.814C197.764 167.814 196.817 175.393 191.851 178.398Z" fill="url(#paint1_linear_167_8412)"/>
<circle cx="35.411" cy="42.2147" r="2.744" fill="#4598D1"/>
<circle cx="229.19" cy="22.4854" r="5.129" fill="#4598D1"/>
<circle cx="240.165" cy="71.1249" r="2.744" fill="#4598D1"/>
<circle cx="87.22" cy="164.977" r="3.855" fill="#E1E4E5"/>
<circle cx="37.534" cy="116.989" r="4.867" fill="#E1E4E5"/>
<circle cx="232.593" cy="90.0392" r="3.85546" transform="rotate(-74.9911 232.593 90.0392)" fill="#E1E4E5"/>
<ellipse cx="55.926" cy="125.222" rx="3.953" ry="3.169" fill="#E1E4E5"/>
<circle cx="53.737" cy="150.669" r="6.305" fill="#E1E4E5"/>
<path fill-rule="evenodd" clip-rule="evenodd" d="M77.976 12.2598H78.041C78.335 16.9598 81.733 17.0288 81.733 17.0288C81.733 17.0288 78.009 17.1268 78.009 22.5498C78.009 17.0938 74.285 17.0288 74.285 17.0288C74.285 17.0288 77.649 16.9598 77.976 12.2598ZM240.035 40.2878H240.1H240.101C240.427 45.0228 243.89 45.0878 243.89 45.0878C243.89 45.0878 240.035 45.1538 240.035 50.6088C240.035 45.1528 236.18 45.0878 236.18 45.0878C236.18 45.0878 239.708 44.9878 240.035 40.2878Z" fill="#E1E4E5"/>
<path d="M218.279 147.141H256.107V175.757H218.279V147.141Z" fill="#4598D1"/>
<path fill-rule="evenodd" clip-rule="evenodd" d="M237.291 147.925C232.554 147.925 228.34 148.088 224.878 148.317C221.655 148.483 219.069 151.04 218.867 154.262C218.704 156.581 218.573 158.999 218.573 161.285C218.573 163.571 218.704 165.985 218.867 168.308C219.069 171.529 221.655 174.086 224.878 174.253C233.134 174.775 241.416 174.775 249.672 174.253C252.895 174.086 255.481 171.529 255.683 168.308C255.846 165.989 255.977 163.571 255.977 161.285C255.977 158.999 255.846 156.585 255.683 154.262C255.481 151.04 252.895 148.483 249.672 148.317C245.556 148.056 241.407 147.925 237.291 147.925ZM224.551 142.992C218.658 143.336 213.941 148.01 213.542 153.9C213.379 156.285 213.248 158.865 213.248 161.315C213.248 163.765 213.379 166.346 213.542 168.73C213.949 174.615 218.659 179.286 224.548 179.644C233.033 180.166 241.543 180.166 250.028 179.644C255.922 179.299 260.64 174.623 261.037 168.733C261.2 166.348 261.331 163.768 261.331 161.318C261.331 158.868 261.2 156.287 261.037 153.903C260.628 148.017 255.917 143.348 250.028 142.992C241.543 142.469 233.033 142.469 224.548 142.992H224.551Z" fill="#4598D1"/>
<path fill-rule="evenodd" clip-rule="evenodd" d="M239.969 163.249C242.044 162.026 243.04 159.562 242.399 157.24C241.757 154.918 239.638 153.315 237.229 153.33C234.82 153.345 232.721 154.974 232.108 157.304C231.496 159.633 232.522 162.084 234.612 163.282V166.682C234.619 168.159 235.814 169.355 237.291 169.361C238.768 169.355 239.963 168.159 239.97 166.682V163.249H239.969Z" fill="white"/>
<path fill-rule="evenodd" clip-rule="evenodd" d="M223.93 134.564C223.993 127.23 229.957 121.318 237.29 121.318C244.624 121.318 250.588 127.23 250.651 134.564V145.246C250.623 146.705 249.432 147.873 247.972 147.873C246.513 147.873 245.322 146.705 245.294 145.246V134.564C245.294 130.144 241.711 126.56 237.29 126.56C232.87 126.56 229.287 130.144 229.287 134.564V145.246C229.259 146.705 228.068 147.873 226.608 147.873C225.149 147.873 223.958 146.705 223.93 145.246L223.93 134.564Z" fill="#4598D1"/>
<defs>
<linearGradient id="paint0_linear_167_8412" x1="33.9096" y1="277.484" x2="17.5219" y2="339.227" gradientUnits="userSpaceOnUse">
<stop stop-color="white"/>
<stop offset="1" stop-color="#EEEEEE"/>
</linearGradient>
<linearGradient id="paint1_linear_167_8412" x1="124.362" y1="-122.583" x2="147.164" y2="-47.0416" gradientUnits="userSpaceOnUse">
<stop stop-color="white"/>
<stop offset="1" stop-color="#EEEEEE"/>
</linearGradient>
</defs>
</svg>
