<svg width="24" height="16" viewBox="0 0 24 16" fill="none" xmlns="http://www.w3.org/2000/svg">
<mask id="mask0_1099_10361" style="mask-type:luminance" maskUnits="userSpaceOnUse" x="0" y="0" width="24" height="16">
<rect width="24" height="16" fill="white"/>
</mask>
<g mask="url(#mask0_1099_10361)">
<path fill-rule="evenodd" clip-rule="evenodd" d="M0 0H24V16H0V0Z" fill="#E31D1C"/>
<path fill-rule="evenodd" clip-rule="evenodd" d="M0 1.33325V2.66659H24V1.33325H0ZM0 3.99992V5.33325H24V3.99992H0ZM0 7.99992V6.66658H24V7.99992H0ZM0 9.33325V10.6666H24V9.33325H0ZM0 13.3333V11.9999H24V13.3333H0ZM0 15.9999V14.6666H24V15.9999H0Z" fill="#F7FCFF"/>
<rect width="13.5" height="9.33333" fill="#2E42A5"/>
<path fill-rule="evenodd" clip-rule="evenodd" d="M1.55996 2.89841L2.35484 2.40624L2.97143 2.80081H2.62231L3.32832 3.35588L3.08986 4.13415H2.71638L2.35373 3.41935L2.04445 4.13415H1.12231L1.82832 4.68921L1.55996 5.56508L2.35484 5.0729L2.97143 5.46748H2.62231L3.32832 6.02254L3.08986 6.80081H2.71638L2.35373 6.08602L2.04445 6.80081H1.12231L1.82832 7.35588L1.55996 8.23175L2.35484 7.73957L3.12394 8.23175L2.88482 7.35588L3.50247 6.80081H3.21758L3.85484 6.40624L4.47143 6.80081H4.12231L4.82832 7.35588L4.55996 8.23175L5.35484 7.73957L6.12394 8.23175L5.88482 7.35588L6.50247 6.80081H6.21758L6.85484 6.40624L7.47143 6.80081H7.12231L7.82832 7.35588L7.55996 8.23175L8.35484 7.73957L9.12394 8.23175L8.88482 7.35588L9.50247 6.80081H9.21758L9.85484 6.40624L10.4714 6.80081H10.1223L10.8283 7.35588L10.56 8.23175L11.3548 7.73957L12.1239 8.23175L11.8848 7.35588L12.5025 6.80081H11.7164L11.3537 6.08602L11.0444 6.80081H10.5973L10.3848 6.02254L11.0025 5.46748H10.7176L11.3548 5.0729L12.1239 5.56508L11.8848 4.68921L12.5025 4.13415H11.7164L11.3537 3.41935L11.0444 4.13415H10.5973L10.3848 3.35588L11.0025 2.80081H10.7176L11.3548 2.40624L12.1239 2.89841L11.8848 2.02254L12.5025 1.46748H11.7164L11.3537 0.752686L11.0444 1.46748H10.1223L10.8283 2.02254L10.5899 2.80081H10.2164L9.85373 2.08602L9.54445 2.80081H9.09729L8.88482 2.02254L9.50247 1.46748H8.71638L8.35373 0.752686L8.04445 1.46748H7.12231L7.82832 2.02254L7.58986 2.80081H7.21638L6.85373 2.08602L6.54445 2.80081H6.09729L5.88482 2.02254L6.50247 1.46748H5.71638L5.35373 0.752686L5.04445 1.46748H4.12231L4.82832 2.02254L4.58986 2.80081H4.21638L3.85373 2.08602L3.54445 2.80081H3.09729L2.88482 2.02254L3.50247 1.46748H2.71638L2.35373 0.752686L2.04445 1.46748H1.12231L1.82832 2.02254L1.55996 2.89841ZM10.5899 5.46748L10.8283 4.68921L10.1223 4.13415H10.4714L9.85484 3.73957L9.21758 4.13415H9.50247L8.88482 4.68921L9.09729 5.46748H9.54445L9.85373 4.75269L10.2164 5.46748H10.5899ZM8.97143 5.46748L8.35484 5.0729L7.71758 5.46748H8.00247L7.38482 6.02254L7.59729 6.80081H8.04445L8.35373 6.08602L8.71638 6.80081H9.08986L9.32832 6.02254L8.62231 5.46748H8.97143ZM6.32832 6.02254L6.08986 6.80081H5.71638L5.35373 6.08602L5.04445 6.80081H4.59729L4.38482 6.02254L5.00247 5.46748H4.71758L5.35484 5.0729L5.97143 5.46748H5.62231L6.32832 6.02254ZM6.54445 5.46748H6.09729L5.88482 4.68921L6.50247 4.13415H6.21758L6.85484 3.73957L7.47143 4.13415H7.12231L7.82832 4.68921L7.58986 5.46748H7.21638L6.85373 4.75269L6.54445 5.46748ZM4.58986 5.46748L4.82832 4.68921L4.12231 4.13415H4.47143L3.85484 3.73957L3.21758 4.13415H3.50247L2.88482 4.68921L3.09729 5.46748H3.54445L3.85373 4.75269L4.21638 5.46748H4.58986ZM9.32832 3.35588L9.08986 4.13415H8.71638L8.35373 3.41935L8.04445 4.13415H7.59729L7.38482 3.35588L8.00247 2.80081H7.71758L8.35484 2.40624L8.97143 2.80081H8.62231L9.32832 3.35588ZM5.97143 2.80081L5.35484 2.40624L4.71758 2.80081H5.00247L4.38482 3.35588L4.59729 4.13415H5.04445L5.35373 3.41935L5.71638 4.13415H6.08986L6.32832 3.35588L5.62231 2.80081H5.97143Z" fill="#F7FCFF"/>
</g>
</svg>
