<svg width="8" height="8" viewBox="0 0 8 8" fill="none" xmlns="http://www.w3.org/2000/svg">
<path fill-rule="evenodd" clip-rule="evenodd" d="M5.41433 3.7471L4 5.1611L2.58567 3.7471C1.80472 2.96602 1.80479 1.69975 2.58583 0.918754C3.36687 0.137759 4.63314 0.137759 5.41418 0.918754C6.19521 1.69975 6.19529 2.96602 5.41433 3.7471ZM1.33342 2.04784V6.3225L3.02175 5.6005L5.02175 6.6005L6.66675 5.8935V1.61917L7.10008 1.43384C7.1517 1.41131 7.21121 1.41637 7.25828 1.4473C7.30535 1.47824 7.33361 1.53085 7.33342 1.58717V6.33384L5.00008 7.33384L3.00008 6.33384L0.900083 7.23384C0.848463 7.25637 0.788955 7.2513 0.741886 7.22037C0.694817 7.18944 0.666554 7.13683 0.666749 7.0805V2.33384L1.33342 2.04784ZM4.94267 3.27531L4 4.21831L3.05733 3.27531C2.67592 2.89401 2.56177 2.32049 2.76812 1.82221C2.97447 1.32392 3.46068 0.999023 4 0.999023C4.53932 0.999023 5.02553 1.32392 5.23188 1.82221C5.43823 2.32049 5.32408 2.89401 4.94267 3.27531Z" fill="#333333"/>
</svg>
