<svg width="21" height="23" viewBox="0 0 21 23" fill="none" xmlns="http://www.w3.org/2000/svg">
<path fill-rule="evenodd" clip-rule="evenodd" d="M10.4004 11.5C7.33214 11.5 4.84484 8.92564 4.84484 5.75C4.84484 2.57436 7.33214 0 10.4004 0C13.4686 0 15.9559 2.57436 15.9559 5.75C15.9523 8.92406 13.4671 11.4962 10.4004 11.5ZM19.2893 23C18.6756 23 18.1782 22.4851 18.1782 21.85V19.55C18.1782 17.6446 16.6858 16.1 14.8448 16.1H5.95595C4.115 16.1 2.62261 17.6446 2.62261 19.55V21.85C2.62261 22.4851 2.12515 23 1.5115 23C0.897852 23 0.400391 22.4851 0.400391 21.85V19.55C0.404064 16.3759 2.88922 13.8038 5.95595 13.8H14.8448C17.9116 13.8038 20.3967 16.3759 20.4004 19.55V21.85C20.4004 22.4851 19.9029 23 19.2893 23ZM7.06706 5.7498C7.06706 3.84442 8.55944 2.2998 10.4004 2.2998C12.2413 2.2998 13.7337 3.84442 13.7337 5.7498C13.7337 7.65519 12.2413 9.1998 10.4004 9.1998C8.55944 9.1998 7.06706 7.65519 7.06706 5.7498Z" fill="#333333"/>
<mask id="mask0_496_3496" style="mask-type:luminance" maskUnits="userSpaceOnUse" x="0" y="0" width="21" height="23">
<path fill-rule="evenodd" clip-rule="evenodd" d="M19.2893 23C18.6756 23 18.1782 22.4851 18.1782 21.85V19.55C18.1782 17.6446 16.6858 16.1 14.8448 16.1H5.95595C4.115 16.1 2.62261 17.6446 2.62261 19.55V21.85C2.62261 22.4851 2.12515 23 1.5115 23C0.897852 23 0.400391 22.4851 0.400391 21.85V19.55C0.404064 16.3759 2.88922 13.8038 5.95595 13.8H14.8448C17.9116 13.8038 20.3967 16.3759 20.4004 19.55V21.85C20.4004 22.4851 19.9029 23 19.2893 23ZM10.4004 11.5C7.33214 11.5 4.84484 8.92564 4.84484 5.75C4.84484 2.57436 7.33214 0 10.4004 0C13.4686 0 15.9559 2.57436 15.9559 5.75C15.9523 8.92406 13.4671 11.4962 10.4004 11.5ZM10.4004 2.2998C8.55944 2.2998 7.06706 3.84442 7.06706 5.7498C7.06706 7.65519 8.55944 9.1998 10.4004 9.1998C12.2413 9.1998 13.7337 7.65519 13.7337 5.7498C13.7337 3.84442 12.2413 2.2998 10.4004 2.2998Z" fill="white"/>
</mask>
<g mask="url(#mask0_496_3496)">
<rect x="-2.93286" y="-2.2998" width="26.6667" height="27.6" fill="#333333"/>
</g>
</svg>
