<svg width="4" height="16" viewBox="0 0 4 16" fill="none" xmlns="http://www.w3.org/2000/svg">
<path fill-rule="evenodd" clip-rule="evenodd" d="M4 13.8182C4 15.0232 3.10457 16 2 16C0.895431 16 0 15.0232 0 13.8182C0 12.6132 0.895431 11.6364 2 11.6364C2.53043 11.6364 3.03914 11.8662 3.41421 12.2754C3.78929 12.6846 4 13.2395 4 13.8182ZM4 8C4 9.20498 3.10457 10.1818 2 10.1818C0.895431 10.1818 0 9.20498 0 8C0 6.79501 0.895431 5.81818 2 5.81818C3.10457 5.81818 4 6.79501 4 8ZM2 4.36328C3.10457 4.36328 4 3.38645 4 2.18146C4 1.60281 3.78929 1.04785 3.41421 0.638684C3.03914 0.229514 2.53043 -0.000354767 2 -0.000354767C0.895431 -0.000354767 0 0.976478 0 2.18146C0 3.38645 0.895431 4.36328 2 4.36328ZM2 2.9082C1.63181 2.9082 1.33333 2.58259 1.33333 2.18093C1.33333 1.98805 1.40357 1.80306 1.5286 1.66667C1.65362 1.53028 1.82319 1.45366 2 1.45366C2.36819 1.45366 2.66667 1.77927 2.66667 2.18093C2.66667 2.58259 2.36819 2.9082 2 2.9082ZM2 8.72656C1.63181 8.72656 1.33333 8.40095 1.33333 7.99929C1.33333 7.80641 1.40357 7.62142 1.5286 7.48503C1.65362 7.34864 1.82319 7.27202 2 7.27202C2.36819 7.27202 2.66667 7.59763 2.66667 7.99929C2.66667 8.40095 2.36819 8.72656 2 8.72656ZM2 14.5449C1.63181 14.5449 1.33333 14.2193 1.33333 13.8176C1.33333 13.6248 1.40357 13.4398 1.5286 13.3034C1.65362 13.167 1.82319 13.0904 2 13.0904C2.36819 13.0904 2.66667 13.416 2.66667 13.8176C2.66667 14.2193 2.36819 14.5449 2 14.5449Z" fill="#716E70" fill-opacity="0.3"/>
</svg>
