<svg width="18" height="22" viewBox="0 0 18 22" fill="none" xmlns="http://www.w3.org/2000/svg">
<path d="M9.56299 21.2929C11.263 21.2929 12.189 20.0929 12.189 18.3989H6.92699C6.83335 19.146 7.07134 19.8966 7.57832 20.4532C8.0853 21.0098 8.81048 21.3166 9.56299 21.2929Z" fill="#333333"/>
<path d="M17.71 16.18C16.869 15.072 15.21 14.422 15.21 9.45797C15.21 4.36297 12.96 2.31597 10.864 1.82397C10.664 1.77497 10.525 1.70897 10.525 1.50197V1.34397C10.525 0.608055 9.92846 0.0114746 9.19254 0.0114746C8.45662 0.0114746 7.86004 0.608055 7.86004 1.34397V1.50197C7.86004 1.70197 7.71804 1.77497 7.52104 1.82397C5.42104 2.32397 3.17504 4.36297 3.17504 9.45797C3.17504 14.422 1.52004 15.066 0.675041 16.18C0.427647 16.5086 0.387535 16.9489 0.571479 17.3168C0.755422 17.6846 1.13173 17.9167 1.54304 17.916H16.848C17.2583 17.9145 17.6325 17.6815 17.8149 17.3141C17.9974 16.9466 17.9568 16.5077 17.71 16.18Z" fill="#333333"/>
</svg>
