<svg width="40" height="40" viewBox="0 0 40 40" fill="none" xmlns="http://www.w3.org/2000/svg">
<rect width="40" height="40" rx="20" fill="white"/>
<path d="M18.563 30.2929C20.263 30.2929 21.189 29.0929 21.189 27.3989H15.927C15.8334 28.146 16.0713 28.8966 16.5783 29.4532C17.0853 30.0098 17.8105 30.3166 18.563 30.2929Z" fill="#333333"/>
<path d="M26.71 25.18C25.869 24.072 24.21 23.422 24.21 18.458C24.21 13.363 21.96 11.316 19.864 10.824C19.664 10.775 19.525 10.709 19.525 10.502V10.344C19.525 9.60806 18.9285 9.01147 18.1925 9.01147C17.4566 9.01147 16.86 9.60806 16.86 10.344V10.502C16.86 10.702 16.718 10.775 16.521 10.824C14.421 11.324 12.175 13.363 12.175 18.458C12.175 23.422 10.52 24.066 9.67504 25.18C9.42765 25.5086 9.38753 25.9489 9.57148 26.3168C9.75542 26.6846 10.1317 26.9167 10.543 26.916H25.848C26.2583 26.9145 26.6325 26.6815 26.8149 26.3141C26.9974 25.9466 26.9568 25.5077 26.71 25.18Z" fill="#333333"/>
<circle cx="25.5" cy="17.793" r="6.5" fill="#4598D1"/>
<g clip-path="url(#clip0_556_704)">
<path d="M24.5293 17.7031L23.6309 17.4883L23.9551 14.6055H27.1504V15.5156H24.8809L24.7402 16.7773C24.8158 16.7331 24.9303 16.6862 25.084 16.6367C25.2376 16.5846 25.4095 16.5586 25.5996 16.5586C25.8757 16.5586 26.1204 16.6016 26.334 16.6875C26.5475 16.7734 26.7285 16.8984 26.877 17.0625C27.028 17.2266 27.1426 17.4271 27.2207 17.6641C27.2988 17.901 27.3379 18.1693 27.3379 18.4688C27.3379 18.7214 27.2988 18.9622 27.2207 19.1914C27.1426 19.418 27.0241 19.6211 26.8652 19.8008C26.7064 19.9779 26.5072 20.1172 26.2676 20.2188C26.028 20.3203 25.7441 20.3711 25.416 20.3711C25.1712 20.3711 24.9342 20.3346 24.7051 20.2617C24.4785 20.1888 24.2741 20.0807 24.0918 19.9375C23.9121 19.7943 23.7676 19.6211 23.6582 19.418C23.5514 19.2122 23.4954 18.9779 23.4902 18.7148H24.6074C24.623 18.8763 24.6647 19.0156 24.7324 19.1328C24.8027 19.2474 24.8952 19.3359 25.0098 19.3984C25.1243 19.4609 25.2585 19.4922 25.4121 19.4922C25.5553 19.4922 25.6777 19.4648 25.7793 19.4102C25.8809 19.3555 25.9629 19.2799 26.0254 19.1836C26.0879 19.0846 26.1335 18.9701 26.1621 18.8398C26.1934 18.707 26.209 18.5638 26.209 18.4102C26.209 18.2565 26.1908 18.1172 26.1543 17.9922C26.1178 17.8672 26.0618 17.7591 25.9863 17.668C25.9108 17.5768 25.8145 17.5065 25.6973 17.457C25.5827 17.4076 25.4486 17.3828 25.2949 17.3828C25.0866 17.3828 24.9251 17.4154 24.8105 17.4805C24.6986 17.5456 24.6048 17.6198 24.5293 17.7031Z" fill="white"/>
</g>
<defs>
<clipPath id="clip0_556_704">
<rect width="5" height="9" fill="white" transform="translate(23.0801 13.293)"/>
</clipPath>
</defs>
</svg>
