<svg width="22" height="24" viewBox="0 0 22 24" fill="none" xmlns="http://www.w3.org/2000/svg">
<path d="M13.595 22.5C13.0583 23.4252 12.0696 23.9947 11 23.9947C9.9304 23.9947 8.9417 23.4252 8.405 22.5C8.22646 22.1908 8.22636 21.8098 8.40474 21.5004C8.58313 21.1911 8.91292 21.0004 9.27 21H12.73C13.0871 21.0004 13.4169 21.1911 13.5953 21.5004C13.7736 21.8098 13.7735 22.1908 13.595 22.5Z" fill="#333333"/>
<mask id="mask0_167_12265" style="mask-type:luminance" maskUnits="userSpaceOnUse" x="0" y="2" width="23" height="22">
<path fill-rule="evenodd" clip-rule="evenodd" d="M11 24C9.92974 23.9973 8.94155 23.4261 8.405 22.5C8.22646 22.1908 8.22636 21.8098 8.40474 21.5004C8.58313 21.1911 8.91292 21.0004 9.27 21H12.73C13.0873 21 13.4174 21.1906 13.596 21.5C13.7746 21.8094 13.7746 22.1906 13.596 22.5C13.0588 23.4259 12.0704 23.997 11 24ZM21 19H1C0.447715 19 0 18.5523 0 18C0 17.4477 0.447715 17 1 17C1.53043 17 2.03914 16.7893 2.41421 16.4142C2.78929 16.0391 3 15.5304 3 15V10C3 5.58172 6.58172 2 11 2C15.4183 2 19 5.58172 19 10V15C19 16.1046 19.8954 17 21 17C21.2686 16.9882 21.5299 17.0898 21.72 17.28C21.9102 17.4701 22.0118 17.7314 22 18C22.0036 18.2519 21.9146 18.4963 21.75 18.687C21.5579 18.8961 21.2838 19.0105 21 19ZM11 4C7.68789 4.00386 5.00386 6.68789 5 10V15C4.99997 15.7022 4.81511 16.3919 4.464 17H17.534C17.1836 16.3917 16.9994 15.702 17 15V10C16.9961 6.68789 14.3121 4.00386 11 4Z" fill="white"/>
</mask>
<g mask="url(#mask0_167_12265)">
<rect x="-1" y="1" width="24" height="24" fill="#333333"/>
</g>
<circle cx="15.5" cy="2.5" r="2.5" fill="#333333"/>
</svg>
