<svg width="22" height="22" viewBox="0 0 22 22" fill="none" xmlns="http://www.w3.org/2000/svg">
<path d="M13.595 20.5C13.0583 21.4252 12.0696 21.9947 11 21.9947C9.9304 21.9947 8.9417 21.4252 8.405 20.5C8.22646 20.1908 8.22636 19.8098 8.40474 19.5004C8.58313 19.1911 8.91292 19.0004 9.27 19H12.73C13.0871 19.0004 13.4169 19.1911 13.5953 19.5004C13.7736 19.8098 13.7735 20.1908 13.595 20.5Z" fill="#333333"/>
<mask id="mask0_167_12291" style="mask-type:luminance" maskUnits="userSpaceOnUse" x="0" y="0" width="23" height="22">
<path fill-rule="evenodd" clip-rule="evenodd" d="M11 22C9.92974 21.9973 8.94155 21.4261 8.405 20.5C8.22646 20.1908 8.22636 19.8098 8.40474 19.5004C8.58313 19.1911 8.91292 19.0004 9.27 19H12.73C13.0873 19 13.4174 19.1906 13.596 19.5C13.7746 19.8094 13.7746 20.1906 13.596 20.5C13.0588 21.4259 12.0704 21.997 11 22ZM21 17H1C0.447715 17 0 16.5523 0 16C0 15.4477 0.447715 15 1 15C1.53043 15 2.03914 14.7893 2.41421 14.4142C2.78929 14.0391 3 13.5304 3 13V8C3 3.58172 6.58172 0 11 0C15.4183 0 19 3.58172 19 8V13C19 14.1046 19.8954 15 21 15C21.2686 14.9882 21.5299 15.0898 21.72 15.28C21.9102 15.4701 22.0118 15.7314 22 16C22.0036 16.2519 21.9146 16.4963 21.75 16.687C21.5579 16.8961 21.2838 17.0105 21 17ZM11 2C7.68789 2.00386 5.00386 4.68789 5 8V13C4.99997 13.7022 4.81511 14.3919 4.464 15H17.534C17.1836 14.3917 16.9994 13.702 17 13V8C16.9961 4.68789 14.3121 2.00386 11 2Z" fill="white"/>
</mask>
<g mask="url(#mask0_167_12291)">
<rect x="-1" y="-1" width="24" height="24" fill="#333333"/>
</g>
</svg>
