<svg width="18" height="20" viewBox="0 0 18 20" fill="none" xmlns="http://www.w3.org/2000/svg">
<path fill-rule="evenodd" clip-rule="evenodd" d="M14.524 9.014H15.436C16.4424 9.01455 17.2583 9.82964 17.26 10.836V18.136C17.2594 19.1431 16.4431 19.9594 15.436 19.96H2.06C1.05364 19.9594 0.237654 19.1444 0.236 18.138V10.838C0.236552 9.83086 1.05286 9.01455 2.06 9.014H2.97V6.277C2.97 3.08645 5.55645 0.5 8.747 0.5C11.9375 0.5 14.524 3.08645 14.524 6.277V9.014ZM6.013 9.014H11.483L11.486 6.277C11.5049 5.28687 10.9875 4.36375 10.1331 3.86314C9.27862 3.36253 8.22038 3.36253 7.36593 3.86314C6.51147 4.36375 5.99407 5.28687 6.013 6.277V9.014Z" fill="#333333"/>
</svg>
