<svg width="70" height="70" viewBox="0 0 70 70" fill="none" xmlns="http://www.w3.org/2000/svg">
<circle cx="35" cy="35" r="35" fill="#EB9A44"/>
<path fill-rule="evenodd" clip-rule="evenodd" d="M42.153 36.1671L40.253 34.2671L49.467 25.0251C49.771 24.7313 49.94 24.3248 49.934 23.9021C49.94 23.4793 49.771 23.0728 49.467 22.7791L47.221 20.5331C46.9237 20.2342 46.5195 20.0662 46.098 20.0662C45.6764 20.0662 45.2722 20.2342 44.975 20.5331L35.733 29.7791L33.833 27.8541L31.478 30.2211C31.416 30.3037 31.3188 30.3524 31.2155 30.3524C31.1122 30.3524 31.0149 30.3037 30.953 30.2211L30.453 29.7211C30.3703 29.6591 30.3216 29.5619 30.3216 29.4586C30.3216 29.3553 30.3703 29.258 30.453 29.1961L32.813 26.8341L29.167 23.1881L26.809 25.5551C26.747 25.6377 26.6498 25.6864 26.5465 25.6864C26.4432 25.6864 26.3459 25.6377 26.284 25.5551L25.784 25.0551C25.7013 24.9931 25.6526 24.8959 25.6526 24.7926C25.6526 24.6893 25.7013 24.592 25.784 24.5301L28.146 22.1671L26.308 20.3291C26.1393 20.1568 25.9069 20.062 25.666 20.0671C25.417 20.0653 25.1769 20.1591 24.995 20.3291L20.328 25.0251C19.9778 25.3814 19.9778 25.9527 20.328 26.3091L29.778 35.7601L24.295 41.2431C23.9961 41.5403 23.8281 41.9445 23.8281 42.3661C23.8281 42.7876 23.9961 43.1918 24.295 43.4891L26.512 45.7341C27.1427 46.3561 28.1562 46.3561 28.787 45.7341L34.27 40.2461L43.691 49.6671C43.8596 49.8393 44.092 49.9341 44.333 49.9291C44.5819 49.9308 44.822 49.837 45.004 49.6671L49.679 45.0081C49.8489 44.8261 49.9427 44.586 49.941 44.3371C49.946 44.0961 49.8512 43.8637 49.679 43.6951L47.841 41.8571L45.478 44.2201C45.416 44.3027 45.3188 44.3514 45.2155 44.3514C45.1122 44.3514 45.0149 44.3027 44.953 44.2201L44.453 43.6951C44.3692 43.6395 44.3188 43.5456 44.3188 43.4451C44.3188 43.3445 44.3692 43.2506 44.453 43.1951L46.824 40.8381L43.178 37.1921L40.815 39.5551C40.753 39.6377 40.6558 39.6864 40.5525 39.6864C40.4492 39.6864 40.3519 39.6377 40.29 39.5551L39.79 39.0551C39.7073 38.9931 39.6586 38.8959 39.6586 38.7926C39.6586 38.6893 39.7073 38.592 39.79 38.5301L42.153 36.1671ZM21.9934 43.6349C21.9932 43.6343 21.9931 43.6337 21.993 43.6331L21.995 43.6341C21.9944 43.6343 21.9939 43.6346 21.9934 43.6349ZM21.9934 43.6349C21.8709 43.7024 21.7544 43.78 21.645 43.8671L20.07 49.0021C20.0344 49.2795 20.0745 49.5615 20.186 49.8181C20.4425 49.9295 20.7245 49.9696 21.002 49.9341L26.132 48.3551C26.2329 48.2557 26.3122 48.1365 26.365 48.0051C26.2224 47.9743 26.091 47.9051 25.985 47.8051L22.193 44.0131C22.0933 43.9074 22.0244 43.7767 21.9934 43.6349Z" fill="white"/>
</svg>
