<svg width="70" height="70" viewBox="0 0 70 70" fill="none" xmlns="http://www.w3.org/2000/svg">
<circle cx="35" cy="35" r="35" fill="#EB9A44"/>
<path fill-rule="evenodd" clip-rule="evenodd" d="M49.4835 17.3499C45.4672 17.3499 42.1889 20.5627 42.108 24.5781C42.1889 28.5935 45.4672 31.8063 49.4835 31.8063C53.4997 31.8063 56.778 28.5935 56.859 24.5781C56.778 20.5627 53.4997 17.3499 49.4835 17.3499ZM28.12 52.0791C28.3043 52.377 28.5991 52.5898 28.94 52.6711H29.265C29.8671 52.6724 30.3942 52.2673 30.548 51.6851L35.621 31.6711C35.7687 30.9791 35.3358 30.2959 34.647 30.1341C34.3049 30.0506 33.9438 30.1044 33.641 30.2841C33.3415 30.462 33.1255 30.7522 33.041 31.0901L27.967 51.0901C27.8823 51.4269 27.9375 51.7836 28.12 52.0791ZM37.8828 47.6258C37.8105 48.005 37.8942 48.3974 38.115 48.7141V48.7131C38.583 49.3745 39.4933 49.5418 40.166 49.0901L49.796 42.6421C50.1969 42.3763 50.438 41.9272 50.438 41.4461C50.438 40.965 50.1969 40.5159 49.796 40.2501V40.2061L40.164 33.7551C39.4841 33.3008 38.5657 33.4747 38.099 34.1461C37.8785 34.4669 37.7967 34.8629 37.872 35.2448C37.9473 35.6266 38.1733 35.962 38.499 36.1751L46.347 41.4371L38.499 46.6991C38.1772 46.9125 37.9551 47.2465 37.8828 47.6258ZM23.408 49.0471L13.777 42.5961C13.3764 42.3299 13.1357 41.881 13.1357 41.4001C13.1357 40.9192 13.3764 40.4703 13.777 40.2041L23.409 33.7531C24.0812 33.3009 24.9915 33.4683 25.459 34.1301C25.6885 34.4475 25.7777 34.8451 25.706 35.2301C25.6324 35.6168 25.4046 35.9569 25.075 36.1721L17.228 41.4081L25.076 46.6551C25.3977 46.8685 25.6198 47.2025 25.6921 47.5818C25.7644 47.961 25.6807 48.3534 25.46 48.6701C24.9922 49.332 24.0815 49.4994 23.409 49.0471H23.408Z" fill="white"/>
</svg>
