<svg width="367" height="245" viewBox="0 0 367 245" fill="none" xmlns="http://www.w3.org/2000/svg">
<path d="M284.088 148.549C285.513 174.562 234.668 227.401 172.059 207.82C142.912 198.701 145.395 183.599 123.25 163.733C110.061 151.887 91.09 142.89 85.798 125.671C81.239 110.771 84.048 94.7708 91.945 84.3928C109.734 60.9858 145.598 44.9468 180.933 81.8278C216.268 118.669 280.424 81.5018 284.088 148.549Z" fill="white"/>
<path d="M270.86 81.4253C265.853 90.3403 254.943 91.5613 237.439 89.8523C224.29 88.5903 212.281 87.5723 199.092 80.4083C190.69 75.7539 183.278 69.5036 177.272 62.0083C171.491 54.8433 163.472 46.7023 167.38 38.6013C172.794 27.4883 204.18 18.0843 234.63 33.4313C268.13 50.2843 275.745 72.7143 270.86 81.4313V81.4253Z" fill="url(#paint0_linear_167_8951)"/>
<path fill-rule="evenodd" clip-rule="evenodd" d="M241.143 182.259C241.143 171.648 249.746 163.045 260.357 163.045C270.969 163.045 279.572 171.648 279.572 182.259M279.572 182.259C279.572 192.871 270.969 201.474 260.357 201.474C249.746 201.474 241.143 192.871 241.143 182.259" fill="#EB9A44"/>
<path d="M255.385 176.805C255.385 175.976 254.713 175.305 253.885 175.305C253.057 175.305 252.385 175.976 252.385 176.805H255.385ZM252.385 180.835C252.385 181.663 253.057 182.335 253.885 182.335C254.713 182.335 255.385 181.663 255.385 180.835H252.385ZM268.285 176.805C268.285 175.976 267.613 175.305 266.785 175.305C265.957 175.305 265.285 175.976 265.285 176.805H268.285ZM265.285 180.835C265.285 181.663 265.957 182.335 266.785 182.335C267.613 182.335 268.285 181.663 268.285 180.835H265.285ZM267.874 188.61C268.526 188.098 268.639 187.155 268.128 186.503C267.616 185.852 266.673 185.738 266.022 186.25L267.874 188.61ZM254.685 186.25C254.034 185.738 253.091 185.852 252.579 186.503C252.068 187.155 252.181 188.098 252.833 188.61L254.685 186.25ZM252.385 176.805V180.835H255.385V176.805H252.385ZM265.285 176.805V180.835H268.285V176.805H265.285ZM266.022 186.25C262.694 188.862 258.013 188.862 254.685 186.25L252.833 188.61C257.248 192.076 263.459 192.076 267.874 188.61L266.022 186.25Z" fill="white"/>
<path fill-rule="evenodd" clip-rule="evenodd" d="M103.427 187.022C92.7928 187.022 84.172 178.401 84.172 167.767C84.172 157.132 92.7928 148.512 103.427 148.512C114.061 148.512 122.682 157.132 122.682 167.767C122.675 178.398 114.058 187.015 103.427 187.022Z" fill="#0D95D1"/>
<path d="M108.923 165.162L102.043 172.205L97.891 167.971" stroke="white" stroke-width="3" stroke-linecap="round" stroke-linejoin="round"/>
<path d="M109.736 122.784L101.92 130.6C101.786 130.737 101.602 130.814 101.411 130.814C101.22 130.814 101.036 130.737 100.902 130.6C100.765 130.466 100.688 130.283 100.688 130.091C100.688 129.9 100.765 129.717 100.902 129.582L108.718 121.766C108.852 121.63 109.036 121.553 109.227 121.553C109.418 121.553 109.602 121.63 109.736 121.766C109.873 121.9 109.95 122.084 109.95 122.275C109.95 122.467 109.873 122.65 109.736 122.784Z" fill="#E1E4E5"/>
<path d="M104.974 122.744L102.735 124.983C102.601 125.12 102.417 125.197 102.226 125.197C102.035 125.197 101.851 125.12 101.717 124.983C101.58 124.849 101.503 124.666 101.503 124.474C101.503 124.283 101.58 124.099 101.717 123.965L103.956 121.726C104.09 121.59 104.274 121.513 104.465 121.513C104.656 121.513 104.84 121.59 104.974 121.726C105.111 121.86 105.188 122.044 105.188 122.235C105.188 122.427 105.111 122.61 104.974 122.744Z" fill="#E1E4E5"/>
<path d="M289.016 98.8479L281.2 106.623C281.066 106.76 280.882 106.837 280.691 106.837C280.499 106.837 280.316 106.76 280.182 106.623C280.045 106.489 279.968 106.305 279.968 106.114C279.968 105.922 280.045 105.739 280.182 105.605L287.994 97.7899C288.128 97.6532 288.311 97.5762 288.503 97.5762C288.694 97.5762 288.878 97.6532 289.012 97.7899C289.298 98.084 289.3 98.5516 289.016 98.8479Z" fill="#E1E4E5"/>
<path d="M284.253 98.8069L282.014 101.046C281.88 101.183 281.696 101.26 281.505 101.26C281.314 101.26 281.13 101.183 280.996 101.046C280.859 100.912 280.782 100.728 280.782 100.537C280.782 100.345 280.859 100.162 280.996 100.028L283.235 97.7889C283.369 97.6522 283.553 97.5752 283.744 97.5752C283.935 97.5752 284.119 97.6522 284.253 97.7889C284.39 97.923 284.467 98.1064 284.467 98.2979C284.467 98.4894 284.39 98.6728 284.253 98.8069Z" fill="#E1E4E5"/>
<path d="M221.44 168.296L213.624 176.112C213.49 176.249 213.307 176.326 213.115 176.326C212.924 176.326 212.74 176.249 212.606 176.112C212.469 175.978 212.392 175.795 212.392 175.603C212.392 175.412 212.469 175.228 212.606 175.094L220.418 167.279C220.552 167.142 220.736 167.065 220.927 167.065C221.119 167.065 221.302 167.142 221.436 167.279C221.573 167.413 221.65 167.596 221.651 167.787C221.652 167.978 221.576 168.162 221.44 168.296Z" fill="#E1E4E5"/>
<path d="M216.636 168.255L214.397 170.494C214.263 170.631 214.079 170.708 213.888 170.708C213.696 170.708 213.513 170.631 213.379 170.494C213.242 170.36 213.165 170.177 213.165 169.985C213.165 169.794 213.242 169.61 213.379 169.476L215.618 167.237C215.752 167.1 215.935 167.023 216.127 167.023C216.318 167.023 216.502 167.1 216.636 167.237C216.773 167.371 216.85 167.555 216.85 167.746C216.85 167.938 216.773 168.121 216.636 168.255Z" fill="#E1E4E5"/>
<path d="M152.439 168.296L144.623 176.112C144.489 176.249 144.305 176.326 144.114 176.326C143.922 176.326 143.739 176.249 143.605 176.112C143.468 175.978 143.391 175.795 143.391 175.603C143.391 175.412 143.468 175.228 143.605 175.094L151.421 167.278C151.555 167.141 151.738 167.064 151.93 167.064C152.121 167.064 152.305 167.141 152.439 167.278C152.576 167.412 152.653 167.596 152.653 167.787C152.653 167.979 152.576 168.162 152.439 168.296Z" fill="#E1E4E5"/>
<path d="M147.677 168.255L145.438 170.494C145.304 170.631 145.12 170.708 144.929 170.708C144.738 170.708 144.554 170.631 144.42 170.494C144.283 170.36 144.206 170.177 144.206 169.985C144.206 169.794 144.283 169.61 144.42 169.476L146.659 167.237C146.793 167.1 146.977 167.023 147.168 167.023C147.359 167.023 147.543 167.1 147.677 167.237C147.814 167.371 147.891 167.555 147.891 167.746C147.891 167.938 147.814 168.121 147.677 168.255Z" fill="#E1E4E5"/>
<path fill-rule="evenodd" clip-rule="evenodd" d="M86.615 77.4347H88.325C88.5196 77.4339 88.7065 77.5108 88.8442 77.6485C88.9818 77.7861 89.0588 77.973 89.058 78.1677V79.8777C89.0588 80.0723 88.9818 80.2592 88.8442 80.3968C88.7065 80.5345 88.5196 80.6115 88.325 80.6107H86.615C86.4203 80.6115 86.2334 80.5345 86.0958 80.3968C85.9582 80.2592 85.8812 80.0723 85.882 79.8777V78.1677C85.8668 77.969 85.9392 77.7736 86.0801 77.6327C86.2209 77.4918 86.4163 77.4195 86.615 77.4347ZM92.515 77.4347H94.225C94.4196 77.4339 94.6065 77.5108 94.7442 77.6485C94.8818 77.7861 94.9588 77.973 94.958 78.1677V79.8777C94.9588 80.0723 94.8818 80.2592 94.7442 80.3968C94.6065 80.5345 94.4196 80.6115 94.225 80.6107H92.515C92.3203 80.6115 92.1334 80.5345 91.9958 80.3968C91.8582 80.2592 91.7812 80.0723 91.782 79.8777V78.1677C91.7812 77.9727 91.8584 77.7854 91.9965 77.6477C92.1346 77.5101 92.322 77.4333 92.517 77.4347H92.515ZM98.415 77.4347H100.125C100.32 77.4339 100.507 77.5108 100.644 77.6485C100.782 77.7861 100.859 77.973 100.858 78.1677V79.8777C100.859 80.0723 100.782 80.2592 100.644 80.3968C100.507 80.5345 100.32 80.6115 100.125 80.6107H98.415C98.2203 80.6115 98.0334 80.5345 97.8958 80.3968C97.7582 80.2592 97.6812 80.0723 97.682 79.8777V78.1677C97.6812 77.973 97.7582 77.7861 97.8958 77.6485C98.0334 77.5108 98.2203 77.4339 98.415 77.4347ZM104.315 77.4347H106.025C106.22 77.4339 106.407 77.5108 106.544 77.6485C106.682 77.7861 106.759 77.973 106.758 78.1677V79.8777C106.759 80.0723 106.682 80.2592 106.544 80.3968C106.407 80.5345 106.22 80.6115 106.025 80.6107H104.315C104.12 80.6115 103.933 80.5345 103.796 80.3968C103.658 80.2592 103.581 80.0723 103.582 79.8777V78.1677C103.581 77.9716 103.659 77.7835 103.799 77.6456C103.938 77.5077 104.127 77.4317 104.323 77.4347H104.315ZM110.258 77.4347H111.968C112.163 77.4339 112.35 77.5108 112.487 77.6485C112.625 77.7861 112.702 77.973 112.701 78.1677V79.8777C112.702 80.0723 112.625 80.2592 112.487 80.3968C112.35 80.5345 112.163 80.6115 111.968 80.6107H110.258C110.063 80.6115 109.876 80.5345 109.739 80.3968C109.601 80.2592 109.524 80.0723 109.525 79.8777V78.1677C109.517 77.9695 109.593 77.777 109.734 77.6375C109.875 77.498 110.068 77.4244 110.266 77.4347H110.258ZM92.713 83.8667H94.423C94.6176 83.8659 94.8045 83.9428 94.9422 84.0805C95.0798 84.2181 95.1568 84.405 95.156 84.5997V86.3097C95.1568 86.5043 95.0798 86.6912 94.9422 86.8288C94.8045 86.9665 94.6176 87.0435 94.423 87.0427H92.713C92.5183 87.0435 92.3314 86.9665 92.1938 86.8288C92.0562 86.6912 91.9792 86.5043 91.98 86.3097V84.6407C91.9753 84.2273 92.2999 83.8849 92.713 83.8677V83.8667ZM98.613 83.8667H100.323C100.518 83.8659 100.705 83.9428 100.842 84.0805C100.98 84.2181 101.057 84.405 101.056 84.5997V86.3097C101.057 86.5043 100.98 86.6912 100.842 86.8288C100.705 86.9665 100.518 87.0435 100.323 87.0427H98.613C98.4183 87.0435 98.2314 86.9665 98.0938 86.8288C97.9562 86.6912 97.8792 86.5043 97.88 86.3097V84.6407C97.8753 84.2273 98.1999 83.8849 98.613 83.8677V83.8667ZM104.556 83.8667H106.266C106.461 83.8659 106.648 83.9428 106.785 84.0805C106.923 84.2181 107 84.405 106.999 84.5997V86.3097C107 86.5043 106.923 86.6912 106.785 86.8288C106.648 86.9665 106.461 87.0435 106.266 87.0427H104.556C104.361 87.0435 104.174 86.9665 104.037 86.8288C103.899 86.6912 103.822 86.5043 103.823 86.3097V84.6407C103.806 84.436 103.878 84.2339 104.02 84.0858C104.163 83.9378 104.362 83.8579 104.567 83.8667H104.556ZM98.42 70.5147H100.13C100.325 70.5139 100.512 70.5908 100.649 70.7285C100.787 70.8661 100.864 71.053 100.863 71.2477V72.9577C100.864 73.1523 100.787 73.3392 100.649 73.4768C100.512 73.6145 100.325 73.6915 100.13 73.6907H98.42C98.2253 73.6915 98.0384 73.6145 97.9008 73.4768C97.7632 73.3392 97.6862 73.1523 97.687 72.9577V71.2477C97.6862 71.053 97.7632 70.8661 97.9008 70.7285C98.0384 70.5908 98.2253 70.5139 98.42 70.5147ZM104.32 70.5147H106.03C106.225 70.5139 106.412 70.5908 106.549 70.7285C106.687 70.8661 106.764 71.053 106.763 71.2477V72.9577C106.764 73.1523 106.687 73.3392 106.549 73.4768C106.412 73.6145 106.225 73.6915 106.03 73.6907H104.32C104.125 73.6915 103.938 73.6145 103.801 73.4768C103.663 73.3392 103.586 73.1523 103.587 72.9577V71.2477C103.586 71.053 103.663 70.8661 103.801 70.7285C103.938 70.5908 104.125 70.5139 104.32 70.5147ZM169.657 97.1377H171.367C171.562 97.1369 171.749 97.2138 171.886 97.3515C172.024 97.4891 172.101 97.676 172.1 97.8707V99.5807C172.101 99.7753 172.024 99.9622 171.886 100.1C171.749 100.237 171.562 100.314 171.367 100.314H169.657C169.462 100.314 169.275 100.237 169.138 100.1C169 99.9622 168.923 99.7753 168.924 99.5807V97.8707C168.923 97.676 169 97.4891 169.138 97.3515C169.275 97.2138 169.462 97.1369 169.657 97.1377ZM175.557 97.1377H177.267C177.462 97.1369 177.649 97.2138 177.786 97.3515C177.924 97.4891 178.001 97.676 178 97.8707V99.5807C178.001 99.7753 177.924 99.9622 177.786 100.1C177.649 100.237 177.462 100.314 177.267 100.314H175.557C175.362 100.314 175.175 100.237 175.038 100.1C174.9 99.9622 174.823 99.7753 174.824 99.5807V97.8707C174.823 97.6751 174.901 97.4875 175.04 97.3497C175.178 97.2119 175.366 97.1355 175.562 97.1377H175.557ZM181.5 97.1377H183.21C183.405 97.1369 183.592 97.2138 183.729 97.3515C183.867 97.4891 183.944 97.676 183.943 97.8707V99.5807C183.944 99.7753 183.867 99.9622 183.729 100.1C183.592 100.237 183.405 100.314 183.21 100.314H181.5C181.305 100.314 181.118 100.237 180.981 100.1C180.843 99.9622 180.766 99.7753 180.767 99.5807V97.8707C180.759 97.6739 180.834 97.4828 180.973 97.3436C181.112 97.2043 181.303 97.1297 181.5 97.1377ZM187.4 97.1377H189.11C189.305 97.1369 189.492 97.2138 189.629 97.3515C189.767 97.4891 189.844 97.676 189.843 97.8707V99.5807C189.844 99.7753 189.767 99.9622 189.629 100.1C189.492 100.237 189.305 100.314 189.11 100.314H187.4C187.205 100.314 187.018 100.237 186.881 100.1C186.743 99.9622 186.666 99.7753 186.667 99.5807V97.8707C186.666 97.6746 186.744 97.4865 186.884 97.3486C187.023 97.2107 187.212 97.1347 187.408 97.1377H187.4ZM193.3 97.1377H195.01C195.205 97.1369 195.392 97.2138 195.529 97.3515C195.667 97.4891 195.744 97.676 195.743 97.8707V99.5807C195.744 99.7753 195.667 99.9622 195.529 100.1C195.392 100.237 195.205 100.314 195.01 100.314H193.3C193.105 100.314 192.918 100.237 192.781 100.1C192.643 99.9622 192.566 99.7753 192.567 99.5807V97.8707C192.566 97.6741 192.645 97.4855 192.785 97.3475C192.925 97.2095 193.114 97.1339 193.311 97.1377H193.3ZM175.8 103.57H177.51C177.705 103.569 177.892 103.646 178.029 103.783C178.167 103.921 178.244 104.108 178.243 104.303V106.013C178.244 106.207 178.167 106.394 178.029 106.532C177.892 106.669 177.705 106.746 177.51 106.746H175.8C175.605 106.746 175.418 106.669 175.281 106.532C175.143 106.394 175.066 106.207 175.067 106.013V104.303C175.065 104.108 175.142 103.92 175.28 103.783C175.418 103.645 175.605 103.568 175.8 103.57ZM181.7 103.57H183.41C183.605 103.569 183.792 103.646 183.929 103.783C184.067 103.921 184.144 104.108 184.143 104.303V106.013C184.144 106.207 184.067 106.394 183.929 106.532C183.792 106.669 183.605 106.746 183.41 106.746H181.7C181.505 106.746 181.318 106.669 181.181 106.532C181.043 106.394 180.966 106.207 180.967 106.013V104.303C180.993 103.909 181.307 103.596 181.7 103.57ZM187.6 103.57H189.31C189.505 103.569 189.692 103.646 189.829 103.783C189.967 103.921 190.044 104.108 190.043 104.303V106.013C190.044 106.207 189.967 106.394 189.829 106.532C189.692 106.669 189.505 106.746 189.31 106.746H187.6C187.405 106.746 187.218 106.669 187.081 106.532C186.943 106.394 186.866 106.207 186.867 106.013V104.303C186.88 103.899 187.208 103.576 187.612 103.57H187.6ZM181.506 90.2147H183.216C183.411 90.2139 183.598 90.2908 183.735 90.4285C183.873 90.5661 183.95 90.753 183.949 90.9477V92.6577C183.95 92.8523 183.873 93.0392 183.735 93.1768C183.598 93.3145 183.411 93.3915 183.216 93.3907H181.506C181.311 93.3915 181.124 93.3145 180.987 93.1768C180.849 93.0392 180.772 92.8523 180.773 92.6577V90.9477C180.765 90.7509 180.84 90.5598 180.979 90.4206C181.118 90.2813 181.309 90.2067 181.506 90.2147ZM187.406 90.2147H189.116C189.311 90.2139 189.498 90.2908 189.635 90.4285C189.773 90.5661 189.85 90.753 189.849 90.9477V92.6577C189.85 92.8523 189.773 93.0392 189.635 93.1768C189.498 93.3145 189.311 93.3915 189.116 93.3907H187.406C187.211 93.3915 187.024 93.3145 186.887 93.1768C186.749 93.0392 186.672 92.8523 186.673 92.6577V90.9477C186.672 90.7527 186.749 90.5654 186.887 90.4277C187.026 90.2901 187.213 90.2133 187.408 90.2147H187.406Z" fill="#E1E4E5"/>
<path fill-rule="evenodd" clip-rule="evenodd" d="M52.053 106.624C52.0519 105.5 52.4977 104.423 53.2919 103.629C54.0862 102.834 55.1637 102.389 56.287 102.39H91.011C93.3237 102.425 95.1799 104.31 95.1799 106.623C95.1799 108.936 93.3237 110.821 91.011 110.857H56.287C55.1637 110.858 54.0862 110.412 53.2919 109.618C52.4977 108.823 52.0519 107.746 52.053 106.623V106.624ZM328.014 127.752C328.015 126.628 327.569 125.551 326.775 124.757C325.981 123.962 324.903 123.517 323.78 123.518H289.053C287.525 123.494 286.103 124.296 285.332 125.615C284.561 126.935 284.561 128.567 285.332 129.887C286.103 131.206 287.525 132.008 289.053 131.985H323.777C324.903 131.995 325.986 131.552 326.783 130.756C327.58 129.96 328.023 128.877 328.014 127.751V127.752ZM52.053 122.134C52.0519 121.01 52.4977 119.933 53.2919 119.139C54.0862 118.344 55.1637 117.899 56.287 117.9H75.053C77.3657 117.935 79.2219 119.82 79.2219 122.133C79.2219 124.446 77.3657 126.331 75.053 126.367H56.287C53.9542 126.354 52.0661 124.466 52.053 122.134ZM328.014 143.262C328.015 142.138 327.569 141.061 326.775 140.267C325.981 139.472 324.903 139.027 323.78 139.028H305.014C303.486 139.004 302.064 139.806 301.293 141.125C300.522 142.445 300.522 144.077 301.293 145.397C302.064 146.716 303.486 147.518 305.014 147.495H323.781C326.114 147.482 328.001 145.593 328.014 143.261V143.262ZM52.053 136.219C52.0519 135.095 52.4977 134.018 53.2919 133.224C54.0862 132.429 55.1637 131.984 56.287 131.985H75.053C77.3657 132.02 79.2219 133.905 79.2219 136.218C79.2219 138.531 77.3657 140.416 75.053 140.452H56.287C53.9542 140.439 52.0661 138.551 52.053 136.219ZM328.014 157.347C328.015 156.223 327.569 155.146 326.775 154.352C325.981 153.557 324.903 153.112 323.78 153.113H305.014C303.486 153.089 302.064 153.891 301.293 155.21C300.522 156.53 300.522 158.162 301.293 159.482C302.064 160.801 303.486 161.603 305.014 161.58H323.781C326.114 161.567 328.001 159.678 328.014 157.346V157.347Z" fill="white"/>
<path d="M52.053 106.624L50.053 106.626C50.054 107.73 50.9497 108.624 52.0539 108.624C53.1581 108.623 54.053 107.728 54.053 106.624H52.053ZM56.287 102.39L56.2851 104.39H56.287V102.39ZM91.011 102.39L91.0417 100.39C91.0315 100.39 91.0212 100.39 91.011 100.39V102.39ZM91.011 110.857V112.857C91.0212 112.857 91.0315 112.857 91.0417 112.856L91.011 110.857ZM56.287 110.857V108.857L56.2851 108.857L56.287 110.857ZM52.053 106.623H54.053C54.053 105.518 53.1581 104.623 52.0539 104.623C50.9497 104.622 50.054 105.517 50.053 106.621L52.053 106.623ZM328.014 127.752H326.014C326.014 128.856 326.909 129.751 328.013 129.752C329.117 129.752 330.013 128.858 330.014 127.754L328.014 127.752ZM323.78 123.518V125.518L323.782 125.518L323.78 123.518ZM289.053 123.518L289.022 125.517C289.033 125.518 289.043 125.518 289.053 125.518V123.518ZM289.053 131.985V129.985C289.043 129.985 289.033 129.985 289.022 129.985L289.053 131.985ZM323.777 131.985L323.795 129.985C323.789 129.985 323.783 129.985 323.777 129.985V131.985ZM328.014 127.751L330.014 127.734C330.005 126.633 329.107 125.746 328.006 125.751C326.904 125.755 326.014 126.649 326.014 127.751H328.014ZM56.287 117.9L56.2851 119.9H56.287V117.9ZM75.053 117.9L75.0837 115.9C75.0735 115.9 75.0632 115.9 75.053 115.9V117.9ZM75.053 126.367V128.367C75.0632 128.367 75.0735 128.367 75.0837 128.366L75.053 126.367ZM56.287 126.367L56.2762 128.367H56.287V126.367ZM52.053 122.134L50.053 122.136L50.053 122.145L52.053 122.134ZM328.014 143.262H326.014C326.014 144.366 326.909 145.261 328.013 145.262C329.117 145.262 330.013 144.368 330.014 143.264L328.014 143.262ZM323.78 139.028V141.028H323.782L323.78 139.028ZM305.014 139.028L304.983 141.027C304.993 141.028 305.004 141.028 305.014 141.028V139.028ZM305.014 147.495V145.495C305.004 145.495 304.993 145.495 304.983 145.495L305.014 147.495ZM323.781 147.495V149.495L323.792 149.495L323.781 147.495ZM328.014 143.261H330.014C330.014 142.158 329.122 141.264 328.019 141.261C326.917 141.258 326.02 142.147 326.014 143.25L328.014 143.261ZM56.287 131.985L56.2851 133.985H56.287V131.985ZM75.053 131.985L75.0837 129.985C75.0735 129.985 75.0632 129.985 75.053 129.985V131.985ZM75.053 140.452V142.452C75.0632 142.452 75.0735 142.452 75.0837 142.451L75.053 140.452ZM56.287 140.452L56.2762 142.452H56.287V140.452ZM52.053 136.219L50.053 136.221L50.053 136.23L52.053 136.219ZM328.014 157.347H326.014C326.014 158.451 326.909 159.346 328.013 159.347C329.117 159.347 330.013 158.453 330.014 157.349L328.014 157.347ZM323.78 153.113V155.113H323.782L323.78 153.113ZM305.014 153.113L304.983 155.112C304.993 155.113 305.004 155.113 305.014 155.113V153.113ZM305.014 161.58V159.58C305.004 159.58 304.993 159.58 304.983 159.58L305.014 161.58ZM323.781 161.58V163.58L323.792 163.58L323.781 161.58ZM328.014 157.346H330.014C330.014 156.243 329.122 155.349 328.019 155.346C326.917 155.343 326.02 156.232 326.014 157.335L328.014 157.346ZM54.053 106.622C54.0524 106.03 54.2874 105.462 54.7061 105.043L51.8777 102.214C50.7079 103.384 50.0514 104.971 50.053 106.626L54.053 106.622ZM54.7061 105.043C55.1249 104.624 55.6929 104.389 56.2851 104.39L56.2889 100.39C54.6345 100.388 53.0475 101.045 51.8777 102.214L54.7061 105.043ZM56.287 104.39H91.011V100.39H56.287V104.39ZM90.9802 104.389C92.2005 104.408 93.1799 105.403 93.1799 106.623H97.1799C97.1799 103.218 94.4469 100.442 91.0417 100.39L90.9802 104.389ZM93.1799 106.623C93.1799 107.844 92.2005 108.838 90.9802 108.857L91.0417 112.856C94.4469 112.804 97.1799 110.029 97.1799 106.623H93.1799ZM91.011 108.857H56.287V112.857H91.011V108.857ZM56.2851 108.857C55.6929 108.857 55.1249 108.622 54.7061 108.204L51.8777 111.032C53.0475 112.202 54.6345 112.858 56.2889 112.857L56.2851 108.857ZM54.7061 108.204C54.2874 107.785 54.0524 107.217 54.053 106.625L50.053 106.621C50.0514 108.275 50.7079 109.862 51.8777 111.032L54.7061 108.204ZM50.053 106.623V106.624H54.053V106.623H50.053ZM330.014 127.754C330.016 126.099 329.359 124.512 328.189 123.342L325.361 126.171C325.78 126.59 326.015 127.158 326.014 127.75L330.014 127.754ZM328.189 123.342C327.019 122.173 325.432 121.516 323.778 121.518L323.782 125.518C324.374 125.517 324.942 125.752 325.361 126.171L328.189 123.342ZM323.78 121.518H289.053V125.518H323.78V121.518ZM289.084 121.518C286.834 121.483 284.74 122.664 283.605 124.607L287.059 126.624C287.466 125.928 288.216 125.505 289.022 125.517L289.084 121.518ZM283.605 124.607C282.47 126.549 282.47 128.953 283.605 130.896L287.059 128.878C286.652 128.182 286.652 127.32 287.059 126.624L283.605 124.607ZM283.605 130.896C284.74 132.839 286.834 134.019 289.084 133.984L289.022 129.985C288.216 129.997 287.466 129.574 287.059 128.878L283.605 130.896ZM289.053 133.985H323.777V129.985H289.053V133.985ZM323.759 133.985C325.422 133.999 327.021 133.346 328.197 132.17L325.369 129.341C324.952 129.758 324.385 129.99 323.795 129.985L323.759 133.985ZM328.197 132.17C329.373 130.995 330.027 129.397 330.014 127.734L326.014 127.767C326.019 128.357 325.787 128.924 325.369 129.341L328.197 132.17ZM326.014 127.751V127.752H330.014V127.751H326.014ZM54.053 122.132C54.0524 121.54 54.2874 120.972 54.7061 120.553L51.8777 117.724C50.7079 118.894 50.0514 120.481 50.053 122.136L54.053 122.132ZM54.7061 120.553C55.1249 120.134 55.6929 119.899 56.2851 119.9L56.2889 115.9C54.6345 115.898 53.0475 116.555 51.8777 117.724L54.7061 120.553ZM56.287 119.9H75.053V115.9H56.287V119.9ZM75.0222 119.899C76.2425 119.918 77.2219 120.913 77.2219 122.133H81.2219C81.2219 118.728 78.4889 115.952 75.0837 115.9L75.0222 119.899ZM77.2219 122.133C77.2219 123.354 76.2425 124.348 75.0222 124.367L75.0837 128.366C78.4889 128.314 81.2219 125.539 81.2219 122.133H77.2219ZM75.053 124.367H56.287V128.367H75.053V124.367ZM56.2978 124.367C55.061 124.36 54.0599 123.359 54.0529 122.122L50.053 122.145C50.0723 125.574 52.8475 128.348 56.2762 128.367L56.2978 124.367ZM330.014 143.264C330.016 141.609 329.359 140.022 328.189 138.852L325.361 141.681C325.78 142.1 326.015 142.668 326.014 143.26L330.014 143.264ZM328.189 138.852C327.019 137.683 325.432 137.026 323.778 137.028L323.782 141.028C324.374 141.027 324.942 141.262 325.361 141.681L328.189 138.852ZM323.78 137.028H305.014V141.028H323.78V137.028ZM305.045 137.028C302.795 136.993 300.701 138.174 299.566 140.117L303.02 142.134C303.427 141.438 304.177 141.015 304.983 141.027L305.045 137.028ZM299.566 140.117C298.431 142.059 298.431 144.463 299.566 146.406L303.02 144.388C302.613 143.692 302.613 142.83 303.02 142.134L299.566 140.117ZM299.566 146.406C300.701 148.349 302.795 149.529 305.045 149.494L304.983 145.495C304.177 145.507 303.427 145.084 303.02 144.388L299.566 146.406ZM305.014 149.495H323.781V145.495H305.014V149.495ZM323.792 149.495C327.221 149.475 329.995 146.7 330.014 143.271L326.014 143.25C326.007 144.487 325.007 145.488 323.77 145.495L323.792 149.495ZM326.014 143.261V143.262H330.014V143.261H326.014ZM54.053 136.217C54.0524 135.625 54.2874 135.057 54.7061 134.638L51.8777 131.809C50.7079 132.979 50.0514 134.566 50.053 136.221L54.053 136.217ZM54.7061 134.638C55.1249 134.219 55.6929 133.984 56.2851 133.985L56.2889 129.985C54.6345 129.983 53.0475 130.64 51.8777 131.809L54.7061 134.638ZM56.287 133.985H75.053V129.985H56.287V133.985ZM75.0222 133.984C76.2425 134.003 77.2219 134.998 77.2219 136.218H81.2219C81.2219 132.813 78.4889 130.037 75.0837 129.985L75.0222 133.984ZM77.2219 136.218C77.2219 137.439 76.2425 138.433 75.0222 138.452L75.0837 142.451C78.4889 142.399 81.2219 139.624 81.2219 136.218H77.2219ZM75.053 138.452H56.287V142.452H75.053V138.452ZM56.2978 138.452C55.061 138.445 54.0599 137.444 54.0529 136.207L50.053 136.23C50.0723 139.659 52.8475 142.433 56.2762 142.452L56.2978 138.452ZM330.014 157.349C330.016 155.694 329.359 154.107 328.189 152.937L325.361 155.766C325.78 156.185 326.015 156.753 326.014 157.345L330.014 157.349ZM328.189 152.937C327.019 151.768 325.432 151.111 323.778 151.113L323.782 155.113C324.374 155.112 324.942 155.347 325.361 155.766L328.189 152.937ZM323.78 151.113H305.014V155.113H323.78V151.113ZM305.045 151.113C302.795 151.078 300.701 152.259 299.566 154.202L303.02 156.219C303.427 155.523 304.177 155.1 304.983 155.112L305.045 151.113ZM299.566 154.202C298.431 156.144 298.431 158.548 299.566 160.491L303.02 158.473C302.613 157.777 302.613 156.915 303.02 156.219L299.566 154.202ZM299.566 160.491C300.701 162.434 302.795 163.614 305.045 163.579L304.983 159.58C304.177 159.592 303.427 159.169 303.02 158.473L299.566 160.491ZM305.014 163.58H323.781V159.58H305.014V163.58ZM323.792 163.58C327.221 163.56 329.995 160.785 330.014 157.356L326.014 157.335C326.007 158.572 325.007 159.573 323.77 159.58L323.792 163.58ZM326.014 157.346V157.347H330.014V157.346H326.014Z" fill="#E1E4E5"/>
<path d="M313.726 95.9985C307.213 97.5455 300.333 92.0095 300.333 92.0095C300.333 92.0095 303.997 83.9895 310.51 82.4435C317.023 80.8975 323.903 86.4325 323.903 86.4325C323.903 86.4325 320.239 94.4525 313.726 95.9985Z" fill="url(#paint1_linear_167_8951)"/>
<path d="M134.162 45.0318C141.001 49.7538 151.504 46.4568 151.504 46.4568C151.504 46.4568 150.853 35.5058 143.973 30.7838C137.131 26.0618 126.631 29.3588 126.631 29.3588C126.631 29.3588 127.323 40.3098 134.162 45.0318Z" fill="url(#paint2_linear_167_8951)"/>
<path d="M127.16 212.75C133.755 217.391 143.932 214.297 143.932 214.297C143.932 214.297 143.403 203.672 136.808 199.031C130.213 194.39 120.036 197.484 120.036 197.484C120.036 197.484 120.565 208.069 127.16 212.75Z" fill="url(#paint3_linear_167_8951)"/>
<ellipse cx="292.72" cy="191.256" rx="5.536" ry="5.292" fill="#0D95D1"/>
<ellipse cx="187.164" cy="52.3185" rx="5.292" ry="5.129" fill="#0D95D1"/>
<circle cx="42.039" cy="126.163" r="2.646" fill="#0D95D1"/>
<circle cx="296.466" cy="59.6056" r="5.048" fill="#0D95D1"/>
<ellipse cx="222.417" cy="208.231" rx="5.618" ry="5.414" fill="#E1E4E5"/>
<circle cx="76.478" cy="163.412" r="2.809" fill="#E1E4E5"/>
<circle cx="170.596" cy="218.123" r="1.669" fill="#E1E4E5"/>
<circle cx="269.883" cy="47.1081" r="2.402" fill="#E1E4E5"/>
<circle cx="47.412" cy="180.835" r="2.361" fill="#E1E4E5"/>
<circle cx="110.551" cy="49.2248" r="3.135" fill="#E1E4E5"/>
<ellipse cx="298.501" cy="117.004" rx="2.402" ry="1.913" fill="#E1E4E5"/>
<circle cx="217.98" cy="58.4661" r="4.885" fill="#E1E4E5"/>
<path fill-rule="evenodd" clip-rule="evenodd" d="M59.584 70.5146H59.462C58.811 79.7146 52.093 79.8776 52.093 79.8776C52.093 79.8776 59.543 80.0396 59.543 90.7056C59.543 80.0406 66.993 79.8776 66.993 79.8776C66.993 79.8776 60.235 79.7556 59.584 70.5146ZM321.582 102.43H321.501C321.135 107.682 317.226 107.803 317.226 107.803C317.226 107.803 321.541 107.885 321.541 113.991C321.541 107.884 325.856 107.803 325.856 107.803C325.856 107.803 321.948 107.722 321.582 102.43Z" fill="#E1E4E5"/>
<path d="M118.856 126.815C115.681 102.715 132.33 74.0153 167.787 78.3723C197.87 82.0723 204.387 77.3143 217.329 70.5153C225.878 66.0373 239.271 58.1403 250.099 80.7733C264.306 110.409 231.007 156.857 201.249 171.105C172.835 184.705 124.595 170.576 118.856 126.814V126.815Z" fill="#0D95D1"/>
<path d="M157.528 126.001L174.218 142.854L210.611 106.054" stroke="white" stroke-width="10" stroke-linecap="round" stroke-linejoin="round"/>
<defs>
<linearGradient id="paint0_linear_167_8951" x1="-191.98" y1="170.935" x2="-208.832" y2="699.784" gradientUnits="userSpaceOnUse">
<stop stop-color="white"/>
<stop offset="1" stop-color="#EEEEEE"/>
</linearGradient>
<linearGradient id="paint1_linear_167_8951" x1="226.35" y1="262.021" x2="249.261" y2="346.555" gradientUnits="userSpaceOnUse">
<stop stop-color="white"/>
<stop offset="1" stop-color="#EEEEEE"/>
</linearGradient>
<linearGradient id="paint2_linear_167_8951" x1="100.129" y1="259.111" x2="65.2023" y2="359.909" gradientUnits="userSpaceOnUse">
<stop stop-color="white"/>
<stop offset="1" stop-color="#EEEEEE"/>
</linearGradient>
<linearGradient id="paint3_linear_167_8951" x1="95.787" y1="-118.902" x2="61.4218" y2="-22.9652" gradientUnits="userSpaceOnUse">
<stop stop-color="white"/>
<stop offset="1" stop-color="#EEEEEE"/>
</linearGradient>
</defs>
</svg>
