<svg width="12" height="12" viewBox="0 0 12 12" fill="none" xmlns="http://www.w3.org/2000/svg">
<mask id="mask0_894_5107" style="mask-type:luminance" maskUnits="userSpaceOnUse" x="0" y="-1" width="12" height="13">
<path fill-rule="evenodd" clip-rule="evenodd" d="M6.28447 11.9989C6.02068 12.0019 5.7898 11.8222 5.728 11.5657L4.67106 7.32985L0.43303 6.26989C0.198848 6.21145 0.0266464 6.01213 0.00280773 5.77191C-0.0210309 5.53169 0.108637 5.3024 0.326765 5.19906L11.1818 0.0563508C11.444 -0.0716872 11.7605 0.0212075 11.9119 0.27063C12.0172 0.434959 12.0289 0.642347 11.9428 0.817472L6.80094 11.6743C6.70833 11.8753 6.50573 12.0026 6.28447 11.9989ZM10.2266 1.77358L2.25897 5.54775L5.28067 6.30373C5.48514 6.35497 5.64479 6.51464 5.69602 6.71915L6.4513 9.74135L10.2266 1.77358Z" fill="white"/>
</mask>
<g mask="url(#mask0_894_5107)">
<rect x="-0.571289" y="-0.574219" width="13.7116" height="13.7139" fill="#4598D1"/>
</g>
</svg>
