<svg width="25" height="17" viewBox="0 0 25 17" fill="none" xmlns="http://www.w3.org/2000/svg">
<path fill-rule="evenodd" clip-rule="evenodd" d="M16.4256 5.87818C15.7682 7.4658 14.2191 8.50101 12.5008 8.50101L12.4998 8.50001C11.3737 8.50027 10.2936 8.05318 9.4971 7.25709C8.70063 6.461 8.25304 5.38112 8.25277 4.25501C8.25196 2.53667 9.28644 0.987081 10.8737 0.328941C12.4611 -0.329199 14.2885 0.033748 15.5039 1.24851C16.7192 2.46327 17.083 4.29057 16.4256 5.87818ZM6.43177 4.86167C6.43085 6.20141 5.34451 7.287 4.00477 7.28701C3.36039 7.28648 2.74262 7.02992 2.28744 6.5738C1.83226 6.11768 1.57697 5.49939 1.57777 4.85501C1.58053 3.51527 2.66835 2.43117 4.0081 2.43301C5.34784 2.43485 6.43268 3.52193 6.43177 4.86167ZM23.4178 4.85834C23.4187 6.19744 22.3349 7.28425 20.9958 7.28701C20.3505 7.2878 19.7315 7.03183 19.2752 6.57557C18.8189 6.11931 18.563 5.50026 18.5638 4.85501C18.5665 3.51592 19.6533 2.43209 20.9924 2.43301C22.3315 2.43393 23.4168 3.51925 23.4178 4.85834ZM19.7818 8.50101C19.1409 8.50032 18.5259 8.75386 18.0718 9.20601C19.6299 10.054 20.6885 11.5962 20.9198 13.355H23.4198C23.7419 13.3555 24.051 13.2278 24.2788 13C24.5066 12.7722 24.6343 12.4631 24.6338 12.141V10.928C24.6332 9.58846 23.5483 8.50221 22.2088 8.50001L22.2098 8.50101H19.7818ZM15.4138 9.71501H15.0988C13.4602 10.5254 11.5374 10.5254 9.89877 9.71501H9.58777C7.17507 9.71556 5.21932 11.6713 5.21877 14.084V15.175C5.21932 16.1799 6.03384 16.9945 7.03877 16.995H17.9638C18.9687 16.9945 19.7832 16.1799 19.7838 15.175V14.083C19.7835 12.924 19.3228 11.8126 18.5031 10.9932C17.6834 10.1739 16.5718 9.71374 15.4128 9.71401L15.4138 9.71501ZM5.21977 8.50201C5.86016 8.50132 6.4747 8.75448 6.92877 9.20601C5.37102 10.0551 4.31188 11.5964 4.07777 13.355H1.57777C1.25581 13.3555 0.946866 13.2279 0.71911 13.0004C0.491354 12.7728 0.363505 12.464 0.36377 12.142V10.928C0.365425 9.58846 1.45122 8.50311 2.79077 8.50201H5.21977ZM6.92877 9.20601L6.92977 9.20701C6.92944 9.20667 6.92911 9.20634 6.92877 9.20601Z" fill="#F2BD85"/>
</svg>
