<svg width="99" height="99" viewBox="0 0 99 99" fill="none" xmlns="http://www.w3.org/2000/svg">
<circle cx="49.5" cy="49.5" r="49.5" fill="#F9F9FF"/>
<path d="M67.5 41.625V61.875C67.4994 63.7387 65.9887 65.2494 64.125 65.25H34.875C33.0113 65.2494 31.5006 63.7387 31.5 61.875V41.625C31.5006 39.7613 33.0113 38.2506 34.875 38.25H41.063L41.928 35.937C42.4212 34.6214 43.679 33.7498 45.084 33.75H53.908C55.3134 33.7494 56.5716 34.621 57.065 35.937L57.937 38.25H64.125C65.9887 38.2506 67.4994 39.7613 67.5 41.625Z" fill="#333333"/>
<path d="M57.938 51.7495C57.938 47.0893 54.1602 43.3115 49.5 43.3115C44.8398 43.3115 41.062 47.0893 41.062 51.7495C41.062 56.4097 44.8398 60.1875 49.5 60.1875C54.1602 60.1875 57.938 56.4097 57.938 51.7495Z" fill="#333333"/>
<path d="M55.688 51.7505C55.6884 54.2534 54.181 56.5101 51.8687 57.4682C49.5565 58.4263 46.8947 57.8971 45.1248 56.1274C43.3548 54.3577 42.8252 51.6961 43.7829 49.3837C44.7407 47.0712 46.9971 45.5635 49.5 45.5635C52.9172 45.5635 55.6875 48.3333 55.688 51.7505Z" fill="white"/>
</svg>
