<svg width="19" height="19" viewBox="0 0 19 19" fill="none" xmlns="http://www.w3.org/2000/svg">
<path d="M14.2618 8.0038L10.9828 4.73063C10.7248 4.47274 10.6658 4.0768 10.8376 3.75516C11.0094 3.43352 11.3716 3.26171 11.7299 3.33187C12.5626 3.49268 13.3402 3.86353 13.9887 4.40911L10.9836 1.41354C10.7353 1.16475 10.6711 0.786711 10.8233 0.470092C10.9756 0.153473 11.3112 -0.0329533 11.661 0.00483414C15.5165 0.432157 18.5615 3.46792 18.9944 7.31602C19.0335 7.66565 18.8472 8.00182 18.5297 8.15451C18.2122 8.30719 17.8327 8.24312 17.5832 7.99469L14.5764 4.99828C15.1264 5.64662 15.5005 6.42495 15.6631 7.25884C15.7133 7.50425 15.6496 7.75916 15.4898 7.95228C15.33 8.14541 15.0913 8.25604 14.8404 8.25323C14.6217 8.25163 14.413 8.16164 14.2618 8.0038Z" fill="#8F8D8D"/>
<mask id="mask0_1354_5285" style="mask-type:luminance" maskUnits="userSpaceOnUse" x="0" y="0" width="19" height="19">
<path fill-rule="evenodd" clip-rule="evenodd" d="M15.6723 19C15.595 19 15.517 19 15.4398 18.9892C12.7595 18.6959 10.1848 17.7822 7.9205 16.3209C5.81695 14.982 4.03202 13.2002 2.69068 11.1004C1.21725 8.82412 0.299173 6.23458 0.0101908 3.53983C-0.052998 2.84442 0.17971 2.15455 0.651404 1.63893C1.1231 1.12331 1.79028 0.82948 2.48979 0.829309H4.99595C6.23925 0.830074 7.29152 1.74607 7.46144 2.97551C7.55856 3.70819 7.73817 4.42759 7.99687 5.12006C8.33698 6.03044 8.11671 7.05511 7.43238 7.74606L6.83718 8.3402C7.81545 9.86723 9.1144 11.1639 10.6442 12.1404L11.2427 11.5429C11.9335 10.8609 12.9586 10.6422 13.8684 10.9828C14.5653 11.242 15.2893 11.4219 16.0267 11.5189C17.2743 11.6947 18.1938 12.773 18.1685 14.0305V16.5032C18.1709 17.1653 17.9087 17.801 17.4399 18.2693C16.9712 18.7377 16.3347 19.0001 15.6714 18.9983L15.6723 19ZM2.48981 2.4866C2.25695 2.487 2.03496 2.58502 1.87801 2.75674C1.72115 2.92385 1.64192 3.14909 1.65968 3.3774C1.922 5.81125 2.7522 8.14983 4.08366 10.2055C5.29707 12.1055 6.91204 13.7176 8.8154 14.9288C10.8601 16.2491 13.1852 17.0748 15.6059 17.3402C15.6308 17.3402 15.6557 17.3402 15.6797 17.3402C15.9011 17.3402 16.1132 17.252 16.2691 17.0951C16.425 16.9383 16.5116 16.7258 16.5099 16.5049V14.0189C16.5273 13.5946 16.2236 13.2245 15.8034 13.158C14.9438 13.0445 14.0997 12.8343 13.2873 12.5315C13.1939 12.4964 13.0949 12.4785 12.9951 12.4785C12.7777 12.477 12.5686 12.562 12.414 12.7146L11.3597 13.767C11.0957 14.0302 10.6881 14.0851 10.3636 13.9013C8.15495 12.6483 6.32628 10.8231 5.07069 8.61862C4.88653 8.29466 4.94155 7.88785 5.20517 7.62424L6.25694 6.57765C6.4852 6.34712 6.55785 6.0049 6.44289 5.70177C6.14057 4.89382 5.93087 4.05429 5.8178 3.19924C5.75949 2.78739 5.40434 2.48251 4.98767 2.4866H2.48981ZM14.8421 8.24919C14.6226 8.24877 14.4128 8.15899 14.2611 8.0006L10.982 4.72743C10.7477 4.4915 10.6771 4.13866 10.8028 3.83101C10.9285 3.52337 11.2262 3.32042 11.559 3.3154C11.6161 3.31548 11.6731 3.32103 11.7292 3.33198C12.5616 3.49353 13.339 3.86429 13.9879 4.40922L10.9829 1.41365C10.7432 1.17954 10.6714 0.82291 10.8019 0.514565C10.9248 0.203375 11.2264 -0.000632189 11.5615 0.000800959C11.5948 0.000898897 11.628 0.00283538 11.6611 0.00660152C15.5163 0.434285 18.5608 3.46996 18.9936 7.31779C19.023 7.55001 18.9503 7.78356 18.7944 7.95834C18.6326 8.13705 18.4031 8.23985 18.1618 8.24174C17.9423 8.24132 17.7324 8.15154 17.5807 7.99314L14.5765 4.9984C15.1258 5.64716 15.4998 6.42531 15.6631 7.25896C15.7144 7.49913 15.6533 7.74952 15.4971 7.93928C15.335 8.13461 15.0946 8.24837 14.8405 8.25002L14.8421 8.24919ZM13.9879 4.41157L14.5756 4.99825C14.3964 4.78676 14.1998 4.59052 13.9879 4.41157Z" fill="white"/>
</mask>
<g mask="url(#mask0_1354_5285)">
<rect x="-0.83075" y="-0.828003" width="19.9231" height="19.8876" fill="#8F8D8D"/>
</g>
</svg>
