<svg width="19" height="16" viewBox="0 0 19 16" fill="none" xmlns="http://www.w3.org/2000/svg">
<path fill-rule="evenodd" clip-rule="evenodd" d="M2.45455 15C1.09894 15 0 13.9553 0 12.6667V3.34111V3.31778C0.00899495 2.03519 1.1053 0.999971 2.45455 1H15.5455C16.9011 1 18 2.04467 18 3.33333V12.6667C18 13.9553 16.9011 15 15.5455 15H2.45455ZM1.63635 12.6667C1.63635 13.0962 2.00267 13.4444 2.45453 13.4444H15.5454C15.9973 13.4444 16.3636 13.0962 16.3636 12.6667V4.82744L9.46881 9.41633C9.18708 9.60382 8.81208 9.60382 8.53035 9.41633L1.63635 4.82744V12.6667ZM16.2777 2.98641L9.00002 7.82885L1.72229 2.98563C1.86091 2.72192 2.14445 2.55538 2.45456 2.55552H15.5455C15.8558 2.55553 16.1394 2.7224 16.2777 2.98641Z" fill="#F2BD85"/>
<mask id="mask0_1355_5328" style="mask-type:luminance" maskUnits="userSpaceOnUse" x="0" y="1" width="18" height="14">
<path fill-rule="evenodd" clip-rule="evenodd" d="M2.45455 15C1.09894 15 0 13.9553 0 12.6667V3.34111C0 3.33333 0 3.32556 0 3.31778C0.00899495 2.03519 1.1053 0.999971 2.45455 1H15.5455C16.9011 1 18 2.04467 18 3.33333V12.6667C18 13.9553 16.9011 15 15.5455 15H2.45455ZM1.63635 12.6667C1.63635 13.0962 2.00267 13.4444 2.45453 13.4444H15.5454C15.9973 13.4444 16.3636 13.0962 16.3636 12.6667V4.82744L9.46881 9.41633C9.18708 9.60382 8.81208 9.60382 8.53035 9.41633L1.63635 4.82744V12.6667ZM9.00002 7.82885L16.2777 2.98641C16.1394 2.7224 15.8558 2.55553 15.5455 2.55552H2.45456C2.14445 2.55538 1.86091 2.72192 1.72229 2.98563L9.00002 7.82885Z" fill="white"/>
</mask>
<g mask="url(#mask0_1355_5328)">
<rect x="-0.818176" y="-1.33325" width="19.6364" height="18.6667" fill="#F2BD85"/>
</g>
</svg>
